<mxfile host="app.diagrams.net" agent="Mozilla/5.0 (Windows NT 10.0; Win64; x64) AppleWebKit/537.36 (KHTML, like Gecko) Chrome/133.0.0.0 Safari/537.36" version="26.0.14">
  <diagram name="Page-1" id="6FiWHi-eDaYCNnCaIsbh">
    <mxGraphModel dx="929" dy="488" grid="1" gridSize="10" guides="1" tooltips="1" connect="1" arrows="1" fold="1" page="1" pageScale="1" pageWidth="850" pageHeight="1100" math="0" shadow="0">
      <root>
        <mxCell id="0" />
        <mxCell id="1" parent="0" />
        <mxCell id="0gPuhfRpQMmkJp9ygIhh-51" value="" style="rounded=0;whiteSpace=wrap;html=1;" parent="1" vertex="1">
          <mxGeometry x="129" y="3570" width="851" height="530" as="geometry" />
        </mxCell>
        <mxCell id="iXs-68Qg5wSXXJZjbfNh-179" value="" style="rounded=0;whiteSpace=wrap;html=1;" parent="1" vertex="1">
          <mxGeometry x="34.5" y="663" width="861" height="1757" as="geometry" />
        </mxCell>
        <mxCell id="iXs-68Qg5wSXXJZjbfNh-81" value="" style="rounded=0;whiteSpace=wrap;html=1;" parent="1" vertex="1">
          <mxGeometry x="49" y="40" width="861" height="530" as="geometry" />
        </mxCell>
        <mxCell id="iXs-68Qg5wSXXJZjbfNh-79" value="" style="rounded=0;whiteSpace=wrap;html=1;" parent="1" vertex="1">
          <mxGeometry x="179" y="2900" width="751" height="560" as="geometry" />
        </mxCell>
        <mxCell id="iXs-68Qg5wSXXJZjbfNh-65" value="" style="rounded=0;whiteSpace=wrap;html=1;" parent="1" vertex="1">
          <mxGeometry x="120" y="150" width="690" height="350" as="geometry" />
        </mxCell>
        <mxCell id="iXs-68Qg5wSXXJZjbfNh-53" value="" style="rounded=0;whiteSpace=wrap;html=1;" parent="1" vertex="1">
          <mxGeometry x="356" y="3019" width="434" height="391" as="geometry" />
        </mxCell>
        <mxCell id="xfxsIgeY6kW6B-Hptfqs-173" value="" style="rounded=0;whiteSpace=wrap;html=1;" parent="1" vertex="1">
          <mxGeometry x="170" y="720" width="300" height="240" as="geometry" />
        </mxCell>
        <mxCell id="xfxsIgeY6kW6B-Hptfqs-52" value="" style="endArrow=classic;html=1;rounded=0;entryX=0.298;entryY=1.002;entryDx=0;entryDy=0;entryPerimeter=0;exitX=0.295;exitY=-0.017;exitDx=0;exitDy=0;exitPerimeter=0;" parent="1" source="xfxsIgeY6kW6B-Hptfqs-35" target="xfxsIgeY6kW6B-Hptfqs-2" edge="1">
          <mxGeometry width="50" height="50" relative="1" as="geometry">
            <mxPoint x="410" y="420" as="sourcePoint" />
            <mxPoint x="460" y="370" as="targetPoint" />
          </mxGeometry>
        </mxCell>
        <mxCell id="xfxsIgeY6kW6B-Hptfqs-67" value="&lt;font style=&quot;font-size: 9px;&quot;&gt;sram out&lt;/font&gt;" style="edgeLabel;html=1;align=center;verticalAlign=middle;resizable=0;points=[];" parent="xfxsIgeY6kW6B-Hptfqs-52" vertex="1" connectable="0">
          <mxGeometry x="-0.17" relative="1" as="geometry">
            <mxPoint as="offset" />
          </mxGeometry>
        </mxCell>
        <mxCell id="xfxsIgeY6kW6B-Hptfqs-1" value="&lt;div&gt;INPUT&lt;/div&gt;&lt;div&gt;BUFFER&lt;/div&gt;&lt;div&gt;2&lt;br&gt;&lt;/div&gt;" style="rounded=0;whiteSpace=wrap;html=1;fillColor=#dae8fc;strokeColor=#6c8ebf;" parent="1" vertex="1">
          <mxGeometry x="190" y="270" width="90" height="65" as="geometry" />
        </mxCell>
        <mxCell id="xfxsIgeY6kW6B-Hptfqs-2" value="&lt;div&gt;&lt;span style=&quot;color: rgba(0, 0, 0, 0.9); text-align: start;&quot;&gt;&lt;font style=&quot;&quot; face=&quot;Helvetica&quot;&gt;Matrix Multiplication Unit&lt;/font&gt;&lt;/span&gt;&lt;/div&gt;" style="rounded=0;whiteSpace=wrap;html=1;fillColor=#fff2cc;strokeColor=#d6b656;" parent="1" vertex="1">
          <mxGeometry x="380" y="270" width="90" height="120" as="geometry" />
        </mxCell>
        <mxCell id="xfxsIgeY6kW6B-Hptfqs-3" value="" style="endArrow=classic;html=1;rounded=0;exitX=1;exitY=0.5;exitDx=0;exitDy=0;entryX=0.707;entryY=1.025;entryDx=0;entryDy=0;entryPerimeter=0;" parent="1" edge="1">
          <mxGeometry width="50" height="50" relative="1" as="geometry">
            <mxPoint x="280" y="295" as="sourcePoint" />
            <mxPoint x="314.50000000000006" y="252.35000000000002" as="targetPoint" />
            <Array as="points">
              <mxPoint x="300" y="295" />
              <mxPoint x="300" y="253" />
            </Array>
          </mxGeometry>
        </mxCell>
        <mxCell id="xfxsIgeY6kW6B-Hptfqs-6" value="&lt;div&gt;MAX /AVG&lt;/div&gt;&lt;div&gt;POOLING&lt;br&gt;&lt;/div&gt;" style="rounded=0;whiteSpace=wrap;html=1;fillColor=#fff2cc;strokeColor=#d6b656;" parent="1" vertex="1">
          <mxGeometry x="520" y="320" width="90" height="40" as="geometry" />
        </mxCell>
        <mxCell id="xfxsIgeY6kW6B-Hptfqs-7" value="&lt;div style=&quot;font-size: 8px;&quot;&gt;&lt;font style=&quot;font-size: 8px;&quot;&gt;INDEX&lt;/font&gt;&lt;/div&gt;&lt;div style=&quot;font-size: 8px;&quot;&gt;&lt;font style=&quot;font-size: 8px;&quot;&gt;RAM&lt;br style=&quot;font-size: 8px;&quot;&gt;&lt;/font&gt;&lt;/div&gt;" style="rounded=0;whiteSpace=wrap;html=1;align=center;fontStyle=0;verticalAlign=middle;horizontal=1;labelPosition=center;verticalLabelPosition=middle;fontSize=8;fillColor=#dae8fc;strokeColor=#6c8ebf;" parent="1" vertex="1">
          <mxGeometry x="190" y="340" width="40" height="20" as="geometry" />
        </mxCell>
        <mxCell id="xfxsIgeY6kW6B-Hptfqs-8" value="&lt;div align=&quot;center&quot;&gt;WEIGHT&lt;/div&gt;&lt;div align=&quot;center&quot;&gt;BUFFER&lt;br&gt;&lt;/div&gt;" style="rounded=0;whiteSpace=wrap;html=1;align=center;fontStyle=0;verticalAlign=middle;horizontal=1;labelPosition=center;verticalLabelPosition=middle;fillColor=#dae8fc;strokeColor=#6c8ebf;" parent="1" vertex="1">
          <mxGeometry x="190" y="365" width="90" height="33" as="geometry" />
        </mxCell>
        <mxCell id="xfxsIgeY6kW6B-Hptfqs-9" value="SOFTMAX" style="rounded=0;whiteSpace=wrap;html=1;fillColor=#fff2cc;strokeColor=#d6b656;" parent="1" vertex="1">
          <mxGeometry x="380" y="221" width="90" height="40" as="geometry" />
        </mxCell>
        <mxCell id="xfxsIgeY6kW6B-Hptfqs-12" value="&lt;div&gt;INPUT&lt;/div&gt;&lt;div&gt;BUFFER&lt;br&gt;&lt;/div&gt;&lt;div&gt;1&lt;br&gt;&lt;/div&gt;" style="rounded=0;whiteSpace=wrap;html=1;fillColor=#dae8fc;strokeColor=#6c8ebf;" parent="1" vertex="1">
          <mxGeometry x="190" y="200" width="90" height="65" as="geometry" />
        </mxCell>
        <mxCell id="xfxsIgeY6kW6B-Hptfqs-13" value="" style="endArrow=classic;html=1;rounded=0;entryX=-0.003;entryY=0.468;entryDx=0;entryDy=0;entryPerimeter=0;" parent="1" target="xfxsIgeY6kW6B-Hptfqs-12" edge="1">
          <mxGeometry width="50" height="50" relative="1" as="geometry">
            <mxPoint x="100" y="230" as="sourcePoint" />
            <mxPoint x="140" y="205" as="targetPoint" />
          </mxGeometry>
        </mxCell>
        <mxCell id="xfxsIgeY6kW6B-Hptfqs-14" value="" style="endArrow=classic;html=1;rounded=0;entryX=0;entryY=0.5;entryDx=0;entryDy=0;" parent="1" source="xfxsIgeY6kW6B-Hptfqs-15" target="xfxsIgeY6kW6B-Hptfqs-1" edge="1">
          <mxGeometry width="50" height="50" relative="1" as="geometry">
            <mxPoint x="140" y="205" as="sourcePoint" />
            <mxPoint x="450" y="355" as="targetPoint" />
            <Array as="points">
              <mxPoint x="139" y="302" />
            </Array>
          </mxGeometry>
        </mxCell>
        <mxCell id="xfxsIgeY6kW6B-Hptfqs-15" value="" style="shape=waypoint;sketch=0;fillStyle=solid;size=6;pointerEvents=1;points=[];fillColor=none;resizable=0;rotatable=0;perimeter=centerPerimeter;snapToPoint=1;" parent="1" vertex="1">
          <mxGeometry x="129" y="221" width="20" height="20" as="geometry" />
        </mxCell>
        <mxCell id="xfxsIgeY6kW6B-Hptfqs-17" value="" style="shape=trapezoid;perimeter=trapezoidPerimeter;whiteSpace=wrap;html=1;fixedSize=1;size=10;rotation=90;" parent="1" vertex="1">
          <mxGeometry x="300" y="232" width="50" height="20" as="geometry" />
        </mxCell>
        <mxCell id="xfxsIgeY6kW6B-Hptfqs-18" value="" style="endArrow=classic;html=1;rounded=0;exitX=1.003;exitY=0.488;exitDx=0;exitDy=0;exitPerimeter=0;entryX=0.299;entryY=1.019;entryDx=0;entryDy=0;entryPerimeter=0;" parent="1" source="xfxsIgeY6kW6B-Hptfqs-12" target="xfxsIgeY6kW6B-Hptfqs-17" edge="1">
          <mxGeometry width="50" height="50" relative="1" as="geometry">
            <mxPoint x="290" y="305" as="sourcePoint" />
            <mxPoint x="300" y="245" as="targetPoint" />
            <Array as="points">
              <mxPoint x="300" y="232" />
            </Array>
          </mxGeometry>
        </mxCell>
        <mxCell id="xfxsIgeY6kW6B-Hptfqs-32" value="" style="endArrow=classic;html=1;rounded=0;exitX=0.999;exitY=0.586;exitDx=0;exitDy=0;entryX=0;entryY=0.5;entryDx=0;entryDy=0;exitPerimeter=0;" parent="1" source="xfxsIgeY6kW6B-Hptfqs-2" target="xfxsIgeY6kW6B-Hptfqs-6" edge="1">
          <mxGeometry width="50" height="50" relative="1" as="geometry">
            <mxPoint x="310" y="280" as="sourcePoint" />
            <mxPoint x="360" y="230" as="targetPoint" />
          </mxGeometry>
        </mxCell>
        <mxCell id="xfxsIgeY6kW6B-Hptfqs-34" value="" style="edgeStyle=orthogonalEdgeStyle;rounded=0;orthogonalLoop=1;jettySize=auto;html=1;" parent="1" edge="1">
          <mxGeometry relative="1" as="geometry">
            <mxPoint x="477" y="340" as="sourcePoint" />
            <mxPoint x="670" y="310" as="targetPoint" />
            <Array as="points">
              <mxPoint x="493" y="340" />
              <mxPoint x="493" y="310" />
            </Array>
          </mxGeometry>
        </mxCell>
        <mxCell id="xfxsIgeY6kW6B-Hptfqs-33" value="" style="shape=waypoint;sketch=0;fillStyle=solid;size=6;pointerEvents=1;points=[];fillColor=none;resizable=0;rotatable=0;perimeter=centerPerimeter;snapToPoint=1;" parent="1" vertex="1">
          <mxGeometry x="483" y="330" width="20" height="20" as="geometry" />
        </mxCell>
        <mxCell id="xfxsIgeY6kW6B-Hptfqs-35" value="&lt;div&gt;PARTIAL&lt;/div&gt;&lt;div&gt;SUM&lt;/div&gt;&lt;div&gt;BUFFER&lt;br&gt;&lt;/div&gt;" style="rounded=0;whiteSpace=wrap;html=1;fillColor=#dae8fc;strokeColor=#6c8ebf;" parent="1" vertex="1">
          <mxGeometry x="380" y="440" width="90" height="50" as="geometry" />
        </mxCell>
        <mxCell id="xfxsIgeY6kW6B-Hptfqs-36" value="&lt;div&gt;OUTPUT&lt;/div&gt;&lt;div&gt;BUFFER&lt;br&gt;&lt;/div&gt;" style="rounded=0;whiteSpace=wrap;html=1;fillColor=#dae8fc;strokeColor=#6c8ebf;" parent="1" vertex="1">
          <mxGeometry x="720" y="262" width="70" height="120" as="geometry" />
        </mxCell>
        <mxCell id="xfxsIgeY6kW6B-Hptfqs-37" value="" style="endArrow=classic;html=1;rounded=0;exitX=1.016;exitY=0.327;exitDx=0;exitDy=0;exitPerimeter=0;entryX=0;entryY=0.58;entryDx=0;entryDy=0;entryPerimeter=0;" parent="1" edge="1">
          <mxGeometry width="50" height="50" relative="1" as="geometry">
            <mxPoint x="570" y="660.02" as="sourcePoint" />
            <mxPoint x="628.56" y="660" as="targetPoint" />
          </mxGeometry>
        </mxCell>
        <mxCell id="xfxsIgeY6kW6B-Hptfqs-38" value="&lt;font style=&quot;font-size: 5px;&quot;&gt;&amp;nbsp;pooling valid&amp;nbsp; &lt;br&gt;&lt;/font&gt;" style="edgeLabel;html=1;align=center;verticalAlign=middle;resizable=0;points=[];" parent="xfxsIgeY6kW6B-Hptfqs-37" vertex="1" connectable="0">
          <mxGeometry x="-0.2637" relative="1" as="geometry">
            <mxPoint x="5" y="-3" as="offset" />
          </mxGeometry>
        </mxCell>
        <mxCell id="xfxsIgeY6kW6B-Hptfqs-40" value="" style="endArrow=classic;html=1;rounded=0;exitX=1.016;exitY=0.327;exitDx=0;exitDy=0;exitPerimeter=0;entryX=0;entryY=0.58;entryDx=0;entryDy=0;entryPerimeter=0;" parent="1" edge="1">
          <mxGeometry width="50" height="50" relative="1" as="geometry">
            <mxPoint x="611" y="329.81" as="sourcePoint" />
            <mxPoint x="670" y="329.81" as="targetPoint" />
          </mxGeometry>
        </mxCell>
        <mxCell id="xfxsIgeY6kW6B-Hptfqs-41" value="&lt;font style=&quot;font-size: 6px;&quot;&gt;&amp;nbsp;Pooling Output&amp;nbsp; &lt;br&gt;&lt;/font&gt;" style="edgeLabel;html=1;align=center;verticalAlign=middle;resizable=0;points=[];" parent="xfxsIgeY6kW6B-Hptfqs-40" vertex="1" connectable="0">
          <mxGeometry x="-0.2637" relative="1" as="geometry">
            <mxPoint x="3" y="-3" as="offset" />
          </mxGeometry>
        </mxCell>
        <mxCell id="xfxsIgeY6kW6B-Hptfqs-42" value="" style="endArrow=classic;html=1;rounded=0;exitX=0.5;exitY=0;exitDx=0;exitDy=0;entryX=0;entryY=0.5;entryDx=0;entryDy=0;" parent="1" edge="1">
          <mxGeometry width="50" height="50" relative="1" as="geometry">
            <mxPoint x="335" y="242" as="sourcePoint" />
            <mxPoint x="380" y="242" as="targetPoint" />
          </mxGeometry>
        </mxCell>
        <mxCell id="xfxsIgeY6kW6B-Hptfqs-46" value="" style="edgeStyle=orthogonalEdgeStyle;rounded=0;orthogonalLoop=1;jettySize=auto;html=1;entryX=-0.007;entryY=0.406;entryDx=0;entryDy=0;entryPerimeter=0;" parent="1" source="xfxsIgeY6kW6B-Hptfqs-43" edge="1">
          <mxGeometry relative="1" as="geometry">
            <mxPoint x="353" y="245" as="sourcePoint" />
            <mxPoint x="379.37" y="327.66" as="targetPoint" />
            <Array as="points">
              <mxPoint x="349" y="328" />
            </Array>
          </mxGeometry>
        </mxCell>
        <mxCell id="xfxsIgeY6kW6B-Hptfqs-43" value="" style="shape=waypoint;sketch=0;fillStyle=solid;size=6;pointerEvents=1;points=[];fillColor=none;resizable=0;rotatable=0;perimeter=centerPerimeter;snapToPoint=1;" parent="1" vertex="1">
          <mxGeometry x="339" y="232" width="20" height="20" as="geometry" />
        </mxCell>
        <mxCell id="xfxsIgeY6kW6B-Hptfqs-55" value="" style="endArrow=classic;html=1;rounded=0;entryX=0.664;entryY=0.008;entryDx=0;entryDy=0;entryPerimeter=0;exitX=0.295;exitY=-0.017;exitDx=0;exitDy=0;exitPerimeter=0;" parent="1" target="xfxsIgeY6kW6B-Hptfqs-35" edge="1">
          <mxGeometry width="50" height="50" relative="1" as="geometry">
            <mxPoint x="440" y="391" as="sourcePoint" />
            <mxPoint x="440" y="420" as="targetPoint" />
          </mxGeometry>
        </mxCell>
        <mxCell id="xfxsIgeY6kW6B-Hptfqs-68" value="sram in" style="edgeLabel;html=1;align=center;verticalAlign=middle;resizable=0;points=[];fontSize=9;" parent="xfxsIgeY6kW6B-Hptfqs-55" vertex="1" connectable="0">
          <mxGeometry x="-0.2414" y="-1" relative="1" as="geometry">
            <mxPoint y="-6" as="offset" />
          </mxGeometry>
        </mxCell>
        <mxCell id="xfxsIgeY6kW6B-Hptfqs-56" value="CONTROLLER" style="rounded=0;whiteSpace=wrap;html=1;align=center;fontStyle=0;verticalAlign=middle;horizontal=1;labelPosition=center;verticalLabelPosition=middle;fillColor=#f8cecc;strokeColor=#b85450;" parent="1" vertex="1">
          <mxGeometry x="190" y="155" width="90" height="40" as="geometry" />
        </mxCell>
        <mxCell id="xfxsIgeY6kW6B-Hptfqs-58" value="" style="endArrow=classic;html=1;rounded=0;exitX=1;exitY=0.5;exitDx=0;exitDy=0;" parent="1" source="xfxsIgeY6kW6B-Hptfqs-9" edge="1">
          <mxGeometry width="50" height="50" relative="1" as="geometry">
            <mxPoint x="470" y="190" as="sourcePoint" />
            <mxPoint x="670" y="290" as="targetPoint" />
            <Array as="points">
              <mxPoint x="600" y="240" />
              <mxPoint x="600" y="290" />
            </Array>
          </mxGeometry>
        </mxCell>
        <mxCell id="xfxsIgeY6kW6B-Hptfqs-63" value="&lt;font style=&quot;font-size: 10px;&quot;&gt;Softmax Output&lt;/font&gt;" style="edgeLabel;html=1;align=center;verticalAlign=middle;resizable=0;points=[];" parent="xfxsIgeY6kW6B-Hptfqs-58" vertex="1" connectable="0">
          <mxGeometry x="-0.3151" y="2" relative="1" as="geometry">
            <mxPoint x="-34" as="offset" />
          </mxGeometry>
        </mxCell>
        <mxCell id="xfxsIgeY6kW6B-Hptfqs-60" value="" style="endArrow=classic;html=1;rounded=0;exitX=1.001;exitY=0.462;exitDx=0;exitDy=0;exitPerimeter=0;entryX=-0.009;entryY=0.91;entryDx=0;entryDy=0;entryPerimeter=0;" parent="1" edge="1">
          <mxGeometry width="50" height="50" relative="1" as="geometry">
            <mxPoint x="280.0899999999999" y="377.246" as="sourcePoint" />
            <mxPoint x="379.18999999999994" y="378.0000000000001" as="targetPoint" />
          </mxGeometry>
        </mxCell>
        <mxCell id="xfxsIgeY6kW6B-Hptfqs-61" value="" style="shape=trapezoid;perimeter=trapezoidPerimeter;whiteSpace=wrap;html=1;fixedSize=1;size=10;rotation=90;" parent="1" vertex="1">
          <mxGeometry x="654" y="299" width="54" height="20" as="geometry" />
        </mxCell>
        <mxCell id="xfxsIgeY6kW6B-Hptfqs-69" value="" style="endArrow=classic;html=1;rounded=0;exitX=0.5;exitY=0;exitDx=0;exitDy=0;entryX=-0.01;entryY=0.389;entryDx=0;entryDy=0;entryPerimeter=0;" parent="1" source="xfxsIgeY6kW6B-Hptfqs-61" target="xfxsIgeY6kW6B-Hptfqs-36" edge="1">
          <mxGeometry width="50" height="50" relative="1" as="geometry">
            <mxPoint x="694" y="306" as="sourcePoint" />
            <mxPoint x="700" y="330" as="targetPoint" />
          </mxGeometry>
        </mxCell>
        <mxCell id="xfxsIgeY6kW6B-Hptfqs-70" value="" style="endArrow=classic;html=1;rounded=0;exitX=0;exitY=0.5;exitDx=0;exitDy=0;entryX=0;entryY=0.774;entryDx=0;entryDy=0;entryPerimeter=0;" parent="1" source="xfxsIgeY6kW6B-Hptfqs-7" target="xfxsIgeY6kW6B-Hptfqs-1" edge="1">
          <mxGeometry width="50" height="50" relative="1" as="geometry">
            <mxPoint x="120" y="350" as="sourcePoint" />
            <mxPoint x="170" y="300" as="targetPoint" />
            <Array as="points">
              <mxPoint x="170" y="350" />
              <mxPoint x="170" y="320" />
            </Array>
          </mxGeometry>
        </mxCell>
        <mxCell id="xfxsIgeY6kW6B-Hptfqs-73" value="" style="edgeStyle=orthogonalEdgeStyle;rounded=0;orthogonalLoop=1;jettySize=auto;html=1;entryX=-0.006;entryY=0.911;entryDx=0;entryDy=0;entryPerimeter=0;jumpStyle=arc;jumpSize=5;" parent="1" source="xfxsIgeY6kW6B-Hptfqs-71" target="xfxsIgeY6kW6B-Hptfqs-12" edge="1">
          <mxGeometry relative="1" as="geometry">
            <mxPoint x="170" y="250" as="targetPoint" />
            <Array as="points">
              <mxPoint x="170" y="259" />
            </Array>
          </mxGeometry>
        </mxCell>
        <mxCell id="xfxsIgeY6kW6B-Hptfqs-71" value="" style="shape=waypoint;sketch=0;fillStyle=solid;size=6;pointerEvents=1;points=[];fillColor=none;resizable=0;rotatable=0;perimeter=centerPerimeter;snapToPoint=1;" parent="1" vertex="1">
          <mxGeometry x="160" y="310" width="20" height="20" as="geometry" />
        </mxCell>
        <mxCell id="xfxsIgeY6kW6B-Hptfqs-74" value="" style="endArrow=none;html=1;rounded=0;fillColor=#dae8fc;strokeColor=#A9C4EB;strokeWidth=5;" parent="1" edge="1">
          <mxGeometry width="50" height="50" relative="1" as="geometry">
            <mxPoint x="212" y="446" as="sourcePoint" />
            <mxPoint x="242" y="446" as="targetPoint" />
          </mxGeometry>
        </mxCell>
        <mxCell id="xfxsIgeY6kW6B-Hptfqs-75" value="" style="endArrow=none;html=1;rounded=0;fillColor=#fff2cc;strokeColor=#FFCC99;strokeWidth=5;" parent="1" edge="1">
          <mxGeometry width="50" height="50" relative="1" as="geometry">
            <mxPoint x="212" y="466" as="sourcePoint" />
            <mxPoint x="242" y="466" as="targetPoint" />
          </mxGeometry>
        </mxCell>
        <mxCell id="xfxsIgeY6kW6B-Hptfqs-76" value="" style="endArrow=none;html=1;rounded=0;fillColor=#f8cecc;strokeColor=#FF9999;strokeWidth=5;" parent="1" edge="1">
          <mxGeometry width="50" height="50" relative="1" as="geometry">
            <mxPoint x="212" y="485" as="sourcePoint" />
            <mxPoint x="242" y="485" as="targetPoint" />
          </mxGeometry>
        </mxCell>
        <mxCell id="xfxsIgeY6kW6B-Hptfqs-77" value="buffer" style="text;strokeColor=none;align=center;fillColor=none;html=1;verticalAlign=middle;whiteSpace=wrap;rounded=0;" parent="1" vertex="1">
          <mxGeometry x="242" y="433" width="50" height="23" as="geometry" />
        </mxCell>
        <mxCell id="xfxsIgeY6kW6B-Hptfqs-78" value="nn &lt;span data-huuid=&quot;6847076873437157149&quot;&gt;&lt;span&gt;arith. logic unit&lt;/span&gt;&lt;/span&gt;" style="text;strokeColor=none;align=center;fillColor=none;html=1;verticalAlign=middle;whiteSpace=wrap;rounded=0;" parent="1" vertex="1">
          <mxGeometry x="242" y="456" width="108" height="23" as="geometry" />
        </mxCell>
        <mxCell id="xfxsIgeY6kW6B-Hptfqs-79" value="controller" style="text;strokeColor=none;align=center;fillColor=none;html=1;verticalAlign=middle;whiteSpace=wrap;rounded=0;" parent="1" vertex="1">
          <mxGeometry x="250" y="474" width="50" height="23" as="geometry" />
        </mxCell>
        <mxCell id="xfxsIgeY6kW6B-Hptfqs-80" value="" style="endArrow=classic;html=1;rounded=0;entryX=0.298;entryY=1.002;entryDx=0;entryDy=0;entryPerimeter=0;exitX=0.295;exitY=-0.017;exitDx=0;exitDy=0;exitPerimeter=0;" parent="1" source="xfxsIgeY6kW6B-Hptfqs-99" target="xfxsIgeY6kW6B-Hptfqs-83" edge="1">
          <mxGeometry width="50" height="50" relative="1" as="geometry">
            <mxPoint x="510" y="2782" as="sourcePoint" />
            <mxPoint x="560" y="2732" as="targetPoint" />
          </mxGeometry>
        </mxCell>
        <mxCell id="xfxsIgeY6kW6B-Hptfqs-81" value="&lt;font style=&quot;font-size: 9px;&quot;&gt;sram out&lt;/font&gt;" style="edgeLabel;html=1;align=center;verticalAlign=middle;resizable=0;points=[];" parent="xfxsIgeY6kW6B-Hptfqs-80" vertex="1" connectable="0">
          <mxGeometry x="-0.17" relative="1" as="geometry">
            <mxPoint as="offset" />
          </mxGeometry>
        </mxCell>
        <mxCell id="xfxsIgeY6kW6B-Hptfqs-82" value="&lt;div&gt;INPUT&lt;/div&gt;&lt;div&gt;BUFFER&lt;/div&gt;&lt;div&gt;2&lt;br&gt;&lt;/div&gt;" style="rounded=0;whiteSpace=wrap;html=1;fillColor=#dae8fc;strokeColor=#6c8ebf;" parent="1" vertex="1">
          <mxGeometry x="290" y="2632" width="90" height="65" as="geometry" />
        </mxCell>
        <mxCell id="xfxsIgeY6kW6B-Hptfqs-83" value="&lt;div&gt;&lt;span style=&quot;color: rgba(0, 0, 0, 0.9); font-family: -apple-system, system-ui, BlinkMacSystemFont, &amp;quot;Segoe UI&amp;quot;, Roboto, &amp;quot;Helvetica Neue&amp;quot;, &amp;quot;Fira Sans&amp;quot;, Ubuntu, Oxygen, &amp;quot;Oxygen Sans&amp;quot;, Cantarell, &amp;quot;Droid Sans&amp;quot;, &amp;quot;Apple Color Emoji&amp;quot;, &amp;quot;Segoe UI Emoji&amp;quot;, &amp;quot;Segoe UI Emoji&amp;quot;, &amp;quot;Segoe UI Symbol&amp;quot;, &amp;quot;Lucida Grande&amp;quot;, Helvetica, Arial, sans-serif; font-weight: 700; text-align: start;&quot;&gt;&lt;font&gt;Matrix Multiplication Unit&lt;/font&gt;&lt;/span&gt;&lt;/div&gt;" style="rounded=0;whiteSpace=wrap;html=1;fillColor=#fff2cc;strokeColor=#d6b656;" parent="1" vertex="1">
          <mxGeometry x="480" y="2642" width="90" height="110" as="geometry" />
        </mxCell>
        <mxCell id="xfxsIgeY6kW6B-Hptfqs-84" value="" style="endArrow=classic;html=1;rounded=0;exitX=1;exitY=0.5;exitDx=0;exitDy=0;entryX=0.707;entryY=1.025;entryDx=0;entryDy=0;entryPerimeter=0;" parent="1" edge="1">
          <mxGeometry width="50" height="50" relative="1" as="geometry">
            <mxPoint x="380" y="2657" as="sourcePoint" />
            <mxPoint x="414.50000000000006" y="2614.35" as="targetPoint" />
            <Array as="points">
              <mxPoint x="400" y="2657" />
              <mxPoint x="400" y="2615" />
            </Array>
          </mxGeometry>
        </mxCell>
        <mxCell id="xfxsIgeY6kW6B-Hptfqs-85" value="&lt;div&gt;MAX /AVG&lt;/div&gt;&lt;div&gt;POOLING&lt;br&gt;&lt;/div&gt;" style="rounded=0;whiteSpace=wrap;html=1;fillColor=#fff2cc;strokeColor=#d6b656;" parent="1" vertex="1">
          <mxGeometry x="620" y="2682" width="90" height="40" as="geometry" />
        </mxCell>
        <mxCell id="xfxsIgeY6kW6B-Hptfqs-86" value="&lt;div style=&quot;font-size: 8px;&quot;&gt;&lt;font style=&quot;font-size: 8px;&quot;&gt;INDEX&lt;/font&gt;&lt;/div&gt;&lt;div style=&quot;font-size: 8px;&quot;&gt;&lt;font style=&quot;font-size: 8px;&quot;&gt;RAM&lt;br style=&quot;font-size: 8px;&quot;&gt;&lt;/font&gt;&lt;/div&gt;" style="rounded=0;whiteSpace=wrap;html=1;align=center;fontStyle=0;verticalAlign=middle;horizontal=1;labelPosition=center;verticalLabelPosition=middle;fontSize=8;fillColor=#dae8fc;strokeColor=#6c8ebf;" parent="1" vertex="1">
          <mxGeometry x="290" y="2702" width="40" height="20" as="geometry" />
        </mxCell>
        <mxCell id="xfxsIgeY6kW6B-Hptfqs-87" value="&lt;div align=&quot;center&quot;&gt;WEIGHT&lt;/div&gt;&lt;div align=&quot;center&quot;&gt;BUFFER&lt;br&gt;&lt;/div&gt;" style="rounded=0;whiteSpace=wrap;html=1;align=center;fontStyle=0;verticalAlign=middle;horizontal=1;labelPosition=center;verticalLabelPosition=middle;fillColor=#dae8fc;strokeColor=#6c8ebf;" parent="1" vertex="1">
          <mxGeometry x="290" y="2727" width="90" height="33" as="geometry" />
        </mxCell>
        <mxCell id="xfxsIgeY6kW6B-Hptfqs-88" value="SOFTMAX" style="rounded=0;whiteSpace=wrap;html=1;fillColor=#fff2cc;strokeColor=#d6b656;" parent="1" vertex="1">
          <mxGeometry x="480" y="2532" width="90" height="40" as="geometry" />
        </mxCell>
        <mxCell id="xfxsIgeY6kW6B-Hptfqs-89" value="&lt;div&gt;BATCH&lt;/div&gt;&lt;div&gt;NORM&lt;/div&gt;" style="rounded=0;whiteSpace=wrap;html=1;fillColor=#fff2cc;strokeColor=#d6b656;" parent="1" vertex="1">
          <mxGeometry x="480" y="2592" width="90" height="40" as="geometry" />
        </mxCell>
        <mxCell id="xfxsIgeY6kW6B-Hptfqs-90" value="&lt;div&gt;INPUT&lt;/div&gt;&lt;div&gt;BUFFER&lt;br&gt;&lt;/div&gt;&lt;div&gt;1&lt;br&gt;&lt;/div&gt;" style="rounded=0;whiteSpace=wrap;html=1;fillColor=#dae8fc;strokeColor=#6c8ebf;" parent="1" vertex="1">
          <mxGeometry x="290" y="2562" width="90" height="65" as="geometry" />
        </mxCell>
        <mxCell id="xfxsIgeY6kW6B-Hptfqs-91" value="" style="endArrow=classic;html=1;rounded=0;entryX=-0.003;entryY=0.468;entryDx=0;entryDy=0;entryPerimeter=0;" parent="1" target="xfxsIgeY6kW6B-Hptfqs-90" edge="1">
          <mxGeometry width="50" height="50" relative="1" as="geometry">
            <mxPoint x="160" y="2591" as="sourcePoint" />
            <mxPoint x="240" y="2566" as="targetPoint" />
          </mxGeometry>
        </mxCell>
        <mxCell id="xfxsIgeY6kW6B-Hptfqs-92" value="" style="endArrow=classic;html=1;rounded=0;entryX=0;entryY=0.5;entryDx=0;entryDy=0;" parent="1" source="xfxsIgeY6kW6B-Hptfqs-93" target="xfxsIgeY6kW6B-Hptfqs-82" edge="1">
          <mxGeometry width="50" height="50" relative="1" as="geometry">
            <mxPoint x="240" y="2567" as="sourcePoint" />
            <mxPoint x="550" y="2717" as="targetPoint" />
            <Array as="points">
              <mxPoint x="239" y="2664" />
            </Array>
          </mxGeometry>
        </mxCell>
        <mxCell id="xfxsIgeY6kW6B-Hptfqs-93" value="" style="shape=waypoint;sketch=0;fillStyle=solid;size=6;pointerEvents=1;points=[];fillColor=none;resizable=0;rotatable=0;perimeter=centerPerimeter;snapToPoint=1;" parent="1" vertex="1">
          <mxGeometry x="229" y="2583" width="20" height="20" as="geometry" />
        </mxCell>
        <mxCell id="xfxsIgeY6kW6B-Hptfqs-94" value="" style="shape=trapezoid;perimeter=trapezoidPerimeter;whiteSpace=wrap;html=1;fixedSize=1;size=10;rotation=90;" parent="1" vertex="1">
          <mxGeometry x="400" y="2594" width="50" height="20" as="geometry" />
        </mxCell>
        <mxCell id="xfxsIgeY6kW6B-Hptfqs-95" value="" style="endArrow=classic;html=1;rounded=0;exitX=1.003;exitY=0.488;exitDx=0;exitDy=0;exitPerimeter=0;entryX=0.299;entryY=1.019;entryDx=0;entryDy=0;entryPerimeter=0;" parent="1" source="xfxsIgeY6kW6B-Hptfqs-90" target="xfxsIgeY6kW6B-Hptfqs-94" edge="1">
          <mxGeometry width="50" height="50" relative="1" as="geometry">
            <mxPoint x="390" y="2667" as="sourcePoint" />
            <mxPoint x="400" y="2607" as="targetPoint" />
            <Array as="points">
              <mxPoint x="400" y="2594" />
            </Array>
          </mxGeometry>
        </mxCell>
        <mxCell id="xfxsIgeY6kW6B-Hptfqs-96" value="" style="endArrow=classic;html=1;rounded=0;exitX=1.003;exitY=0.549;exitDx=0;exitDy=0;entryX=0;entryY=0.5;entryDx=0;entryDy=0;exitPerimeter=0;" parent="1" source="xfxsIgeY6kW6B-Hptfqs-83" target="xfxsIgeY6kW6B-Hptfqs-85" edge="1">
          <mxGeometry width="50" height="50" relative="1" as="geometry">
            <mxPoint x="410" y="2642" as="sourcePoint" />
            <mxPoint x="460" y="2592" as="targetPoint" />
          </mxGeometry>
        </mxCell>
        <mxCell id="xfxsIgeY6kW6B-Hptfqs-97" value="" style="edgeStyle=orthogonalEdgeStyle;rounded=0;orthogonalLoop=1;jettySize=auto;html=1;" parent="1" source="xfxsIgeY6kW6B-Hptfqs-98" edge="1">
          <mxGeometry relative="1" as="geometry">
            <mxPoint x="593" y="2712" as="sourcePoint" />
            <mxPoint x="770" y="2676" as="targetPoint" />
            <Array as="points">
              <mxPoint x="593" y="2676" />
              <mxPoint x="770" y="2676" />
            </Array>
          </mxGeometry>
        </mxCell>
        <mxCell id="xfxsIgeY6kW6B-Hptfqs-98" value="" style="shape=waypoint;sketch=0;fillStyle=solid;size=6;pointerEvents=1;points=[];fillColor=none;resizable=0;rotatable=0;perimeter=centerPerimeter;snapToPoint=1;" parent="1" vertex="1">
          <mxGeometry x="583" y="2692" width="20" height="20" as="geometry" />
        </mxCell>
        <mxCell id="xfxsIgeY6kW6B-Hptfqs-99" value="&lt;div&gt;PARTIAL&lt;/div&gt;&lt;div&gt;SUM&lt;/div&gt;&lt;div&gt;BUFFER&lt;br&gt;&lt;/div&gt;" style="rounded=0;whiteSpace=wrap;html=1;fillColor=#dae8fc;strokeColor=#6c8ebf;" parent="1" vertex="1">
          <mxGeometry x="480" y="2802" width="90" height="50" as="geometry" />
        </mxCell>
        <mxCell id="xfxsIgeY6kW6B-Hptfqs-100" value="&lt;div&gt;OUTPUT&lt;/div&gt;&lt;div&gt;BUFFER&lt;br&gt;&lt;/div&gt;" style="rounded=0;whiteSpace=wrap;html=1;fillColor=#dae8fc;strokeColor=#6c8ebf;" parent="1" vertex="1">
          <mxGeometry x="820" y="2624" width="70" height="120" as="geometry" />
        </mxCell>
        <mxCell id="xfxsIgeY6kW6B-Hptfqs-101" value="" style="endArrow=classic;html=1;rounded=0;exitX=1.016;exitY=0.327;exitDx=0;exitDy=0;exitPerimeter=0;entryX=0;entryY=0.58;entryDx=0;entryDy=0;entryPerimeter=0;" parent="1" edge="1">
          <mxGeometry width="50" height="50" relative="1" as="geometry">
            <mxPoint x="660" y="2859.02" as="sourcePoint" />
            <mxPoint x="718.56" y="2859" as="targetPoint" />
          </mxGeometry>
        </mxCell>
        <mxCell id="xfxsIgeY6kW6B-Hptfqs-102" value="&lt;font style=&quot;font-size: 5px;&quot;&gt;&amp;nbsp;pooling valid&amp;nbsp; &lt;br&gt;&lt;/font&gt;" style="edgeLabel;html=1;align=center;verticalAlign=middle;resizable=0;points=[];" parent="xfxsIgeY6kW6B-Hptfqs-101" vertex="1" connectable="0">
          <mxGeometry x="-0.2637" relative="1" as="geometry">
            <mxPoint x="19" y="-50" as="offset" />
          </mxGeometry>
        </mxCell>
        <mxCell id="xfxsIgeY6kW6B-Hptfqs-103" value="" style="endArrow=classic;html=1;rounded=0;exitX=1.016;exitY=0.327;exitDx=0;exitDy=0;exitPerimeter=0;entryX=0;entryY=0.58;entryDx=0;entryDy=0;entryPerimeter=0;" parent="1" edge="1">
          <mxGeometry width="50" height="50" relative="1" as="geometry">
            <mxPoint x="711" y="2691.81" as="sourcePoint" />
            <mxPoint x="770" y="2691.81" as="targetPoint" />
          </mxGeometry>
        </mxCell>
        <mxCell id="xfxsIgeY6kW6B-Hptfqs-104" value="&lt;font style=&quot;font-size: 6px;&quot;&gt;&amp;nbsp;Pooling Output&amp;nbsp; &lt;br&gt;&lt;/font&gt;" style="edgeLabel;html=1;align=center;verticalAlign=middle;resizable=0;points=[];" parent="xfxsIgeY6kW6B-Hptfqs-103" vertex="1" connectable="0">
          <mxGeometry x="-0.2637" relative="1" as="geometry">
            <mxPoint x="3" y="-3" as="offset" />
          </mxGeometry>
        </mxCell>
        <mxCell id="xfxsIgeY6kW6B-Hptfqs-105" value="" style="endArrow=classic;html=1;rounded=0;exitX=0.5;exitY=0;exitDx=0;exitDy=0;entryX=0;entryY=0.5;entryDx=0;entryDy=0;" parent="1" edge="1">
          <mxGeometry width="50" height="50" relative="1" as="geometry">
            <mxPoint x="435" y="2604" as="sourcePoint" />
            <mxPoint x="480" y="2604" as="targetPoint" />
          </mxGeometry>
        </mxCell>
        <mxCell id="xfxsIgeY6kW6B-Hptfqs-106" value="" style="edgeStyle=orthogonalEdgeStyle;rounded=0;orthogonalLoop=1;jettySize=auto;html=1;entryX=-0.009;entryY=0.461;entryDx=0;entryDy=0;entryPerimeter=0;" parent="1" source="xfxsIgeY6kW6B-Hptfqs-108" target="xfxsIgeY6kW6B-Hptfqs-88" edge="1">
          <mxGeometry relative="1" as="geometry">
            <mxPoint x="460" y="2552" as="targetPoint" />
            <Array as="points">
              <mxPoint x="449" y="2550" />
            </Array>
          </mxGeometry>
        </mxCell>
        <mxCell id="xfxsIgeY6kW6B-Hptfqs-107" value="" style="edgeStyle=orthogonalEdgeStyle;rounded=0;orthogonalLoop=1;jettySize=auto;html=1;entryX=-0.007;entryY=0.406;entryDx=0;entryDy=0;entryPerimeter=0;" parent="1" source="xfxsIgeY6kW6B-Hptfqs-108" edge="1">
          <mxGeometry relative="1" as="geometry">
            <mxPoint x="453" y="2607" as="sourcePoint" />
            <mxPoint x="479.37" y="2689.66" as="targetPoint" />
            <Array as="points">
              <mxPoint x="449" y="2690" />
            </Array>
          </mxGeometry>
        </mxCell>
        <mxCell id="xfxsIgeY6kW6B-Hptfqs-108" value="" style="shape=waypoint;sketch=0;fillStyle=solid;size=6;pointerEvents=1;points=[];fillColor=none;resizable=0;rotatable=0;perimeter=centerPerimeter;snapToPoint=1;" parent="1" vertex="1">
          <mxGeometry x="439" y="2594" width="20" height="20" as="geometry" />
        </mxCell>
        <mxCell id="xfxsIgeY6kW6B-Hptfqs-109" value="" style="edgeStyle=orthogonalEdgeStyle;rounded=0;orthogonalLoop=1;jettySize=auto;html=1;entryX=0.002;entryY=0.651;entryDx=0;entryDy=0;entryPerimeter=0;" parent="1" source="xfxsIgeY6kW6B-Hptfqs-110" target="xfxsIgeY6kW6B-Hptfqs-89" edge="1">
          <mxGeometry relative="1" as="geometry">
            <Array as="points">
              <mxPoint x="461" y="2619" />
              <mxPoint x="480" y="2619" />
            </Array>
          </mxGeometry>
        </mxCell>
        <mxCell id="xfxsIgeY6kW6B-Hptfqs-110" value="" style="shape=waypoint;sketch=0;fillStyle=solid;size=6;pointerEvents=1;points=[];fillColor=none;resizable=0;rotatable=0;perimeter=centerPerimeter;snapToPoint=1;" parent="1" vertex="1">
          <mxGeometry x="451" y="2732" width="20" height="20" as="geometry" />
        </mxCell>
        <mxCell id="xfxsIgeY6kW6B-Hptfqs-111" value="" style="endArrow=classic;html=1;rounded=0;entryX=0.664;entryY=0.008;entryDx=0;entryDy=0;entryPerimeter=0;exitX=0.295;exitY=-0.017;exitDx=0;exitDy=0;exitPerimeter=0;" parent="1" target="xfxsIgeY6kW6B-Hptfqs-99" edge="1">
          <mxGeometry width="50" height="50" relative="1" as="geometry">
            <mxPoint x="540" y="2753" as="sourcePoint" />
            <mxPoint x="540" y="2782" as="targetPoint" />
          </mxGeometry>
        </mxCell>
        <mxCell id="xfxsIgeY6kW6B-Hptfqs-112" value="sram in" style="edgeLabel;html=1;align=center;verticalAlign=middle;resizable=0;points=[];fontSize=9;" parent="xfxsIgeY6kW6B-Hptfqs-111" vertex="1" connectable="0">
          <mxGeometry x="-0.2414" y="-1" relative="1" as="geometry">
            <mxPoint y="-6" as="offset" />
          </mxGeometry>
        </mxCell>
        <mxCell id="xfxsIgeY6kW6B-Hptfqs-113" value="CONTROLLER" style="rounded=0;whiteSpace=wrap;html=1;align=center;fontStyle=0;verticalAlign=middle;horizontal=1;labelPosition=center;verticalLabelPosition=middle;fillColor=#f8cecc;strokeColor=#b85450;" parent="1" vertex="1">
          <mxGeometry x="290" y="2517" width="90" height="40" as="geometry" />
        </mxCell>
        <mxCell id="xfxsIgeY6kW6B-Hptfqs-114" value="" style="endArrow=classic;html=1;rounded=0;" parent="1" edge="1">
          <mxGeometry width="50" height="50" relative="1" as="geometry">
            <mxPoint x="570" y="2552" as="sourcePoint" />
            <mxPoint x="770" y="2649" as="targetPoint" />
            <Array as="points">
              <mxPoint x="700" y="2552" />
              <mxPoint x="700" y="2649" />
            </Array>
          </mxGeometry>
        </mxCell>
        <mxCell id="xfxsIgeY6kW6B-Hptfqs-115" value="&lt;font style=&quot;font-size: 8px;&quot;&gt;Softmax Output&lt;/font&gt;" style="edgeLabel;html=1;align=center;verticalAlign=middle;resizable=0;points=[];" parent="xfxsIgeY6kW6B-Hptfqs-114" vertex="1" connectable="0">
          <mxGeometry x="-0.3151" y="2" relative="1" as="geometry">
            <mxPoint x="-34" as="offset" />
          </mxGeometry>
        </mxCell>
        <mxCell id="xfxsIgeY6kW6B-Hptfqs-116" value="" style="endArrow=classic;html=1;rounded=0;exitX=1.001;exitY=0.462;exitDx=0;exitDy=0;exitPerimeter=0;entryX=-0.009;entryY=0.91;entryDx=0;entryDy=0;entryPerimeter=0;" parent="1" source="xfxsIgeY6kW6B-Hptfqs-87" target="xfxsIgeY6kW6B-Hptfqs-83" edge="1">
          <mxGeometry width="50" height="50" relative="1" as="geometry">
            <mxPoint x="400" y="2752" as="sourcePoint" />
            <mxPoint x="450" y="2702" as="targetPoint" />
          </mxGeometry>
        </mxCell>
        <mxCell id="xfxsIgeY6kW6B-Hptfqs-117" value="" style="shape=trapezoid;perimeter=trapezoidPerimeter;whiteSpace=wrap;html=1;fixedSize=1;size=10;rotation=90;" parent="1" vertex="1">
          <mxGeometry x="754" y="2661" width="54" height="20" as="geometry" />
        </mxCell>
        <mxCell id="xfxsIgeY6kW6B-Hptfqs-118" value="" style="endArrow=classic;html=1;rounded=0;" parent="1" edge="1">
          <mxGeometry width="50" height="50" relative="1" as="geometry">
            <mxPoint x="571" y="2613" as="sourcePoint" />
            <mxPoint x="770" y="2662" as="targetPoint" />
            <Array as="points">
              <mxPoint x="670" y="2613" />
              <mxPoint x="670" y="2661" />
              <mxPoint x="701" y="2661" />
            </Array>
          </mxGeometry>
        </mxCell>
        <mxCell id="xfxsIgeY6kW6B-Hptfqs-119" value="&lt;font style=&quot;font-size: 8px;&quot;&gt;BatchNorm Output&lt;/font&gt;" style="edgeLabel;html=1;align=center;verticalAlign=middle;resizable=0;points=[];" parent="xfxsIgeY6kW6B-Hptfqs-118" vertex="1" connectable="0">
          <mxGeometry x="-0.5952" y="1" relative="1" as="geometry">
            <mxPoint as="offset" />
          </mxGeometry>
        </mxCell>
        <mxCell id="xfxsIgeY6kW6B-Hptfqs-120" value="" style="endArrow=classic;html=1;rounded=0;exitX=0.5;exitY=0;exitDx=0;exitDy=0;entryX=-0.01;entryY=0.389;entryDx=0;entryDy=0;entryPerimeter=0;" parent="1" source="xfxsIgeY6kW6B-Hptfqs-117" target="xfxsIgeY6kW6B-Hptfqs-100" edge="1">
          <mxGeometry width="50" height="50" relative="1" as="geometry">
            <mxPoint x="794" y="2668" as="sourcePoint" />
            <mxPoint x="800" y="2692" as="targetPoint" />
          </mxGeometry>
        </mxCell>
        <mxCell id="xfxsIgeY6kW6B-Hptfqs-121" value="" style="endArrow=classic;html=1;rounded=0;exitX=0;exitY=0.5;exitDx=0;exitDy=0;entryX=0;entryY=0.774;entryDx=0;entryDy=0;entryPerimeter=0;" parent="1" source="xfxsIgeY6kW6B-Hptfqs-86" target="xfxsIgeY6kW6B-Hptfqs-82" edge="1">
          <mxGeometry width="50" height="50" relative="1" as="geometry">
            <mxPoint x="220" y="2712" as="sourcePoint" />
            <mxPoint x="270" y="2662" as="targetPoint" />
            <Array as="points">
              <mxPoint x="270" y="2712" />
              <mxPoint x="270" y="2682" />
            </Array>
          </mxGeometry>
        </mxCell>
        <mxCell id="xfxsIgeY6kW6B-Hptfqs-122" value="" style="edgeStyle=orthogonalEdgeStyle;rounded=0;orthogonalLoop=1;jettySize=auto;html=1;entryX=-0.006;entryY=0.911;entryDx=0;entryDy=0;entryPerimeter=0;" parent="1" source="xfxsIgeY6kW6B-Hptfqs-123" target="xfxsIgeY6kW6B-Hptfqs-90" edge="1">
          <mxGeometry relative="1" as="geometry">
            <mxPoint x="270" y="2612" as="targetPoint" />
            <Array as="points">
              <mxPoint x="270" y="2621" />
            </Array>
          </mxGeometry>
        </mxCell>
        <mxCell id="xfxsIgeY6kW6B-Hptfqs-123" value="" style="shape=waypoint;sketch=0;fillStyle=solid;size=6;pointerEvents=1;points=[];fillColor=none;resizable=0;rotatable=0;perimeter=centerPerimeter;snapToPoint=1;" parent="1" vertex="1">
          <mxGeometry x="260" y="2672" width="20" height="20" as="geometry" />
        </mxCell>
        <mxCell id="xfxsIgeY6kW6B-Hptfqs-124" value="" style="endArrow=none;html=1;rounded=0;fillColor=#dae8fc;strokeColor=#A9C4EB;strokeWidth=5;" parent="1" edge="1">
          <mxGeometry width="50" height="50" relative="1" as="geometry">
            <mxPoint x="312" y="2808" as="sourcePoint" />
            <mxPoint x="342" y="2808" as="targetPoint" />
          </mxGeometry>
        </mxCell>
        <mxCell id="xfxsIgeY6kW6B-Hptfqs-125" value="" style="endArrow=none;html=1;rounded=0;fillColor=#fff2cc;strokeColor=#FFCC99;strokeWidth=5;" parent="1" edge="1">
          <mxGeometry width="50" height="50" relative="1" as="geometry">
            <mxPoint x="312" y="2828" as="sourcePoint" />
            <mxPoint x="342" y="2828" as="targetPoint" />
          </mxGeometry>
        </mxCell>
        <mxCell id="xfxsIgeY6kW6B-Hptfqs-126" value="" style="endArrow=none;html=1;rounded=0;fillColor=#f8cecc;strokeColor=#FF9999;strokeWidth=5;" parent="1" edge="1">
          <mxGeometry width="50" height="50" relative="1" as="geometry">
            <mxPoint x="312" y="2847" as="sourcePoint" />
            <mxPoint x="342" y="2847" as="targetPoint" />
          </mxGeometry>
        </mxCell>
        <mxCell id="xfxsIgeY6kW6B-Hptfqs-127" value="buffer" style="text;strokeColor=none;align=center;fillColor=none;html=1;verticalAlign=middle;whiteSpace=wrap;rounded=0;" parent="1" vertex="1">
          <mxGeometry x="342" y="2795" width="50" height="23" as="geometry" />
        </mxCell>
        <mxCell id="xfxsIgeY6kW6B-Hptfqs-128" value="nn &lt;span data-huuid=&quot;6847076873437157149&quot;&gt;&lt;span&gt;arith. logic unit&lt;/span&gt;&lt;/span&gt;" style="text;strokeColor=none;align=center;fillColor=none;html=1;verticalAlign=middle;whiteSpace=wrap;rounded=0;" parent="1" vertex="1">
          <mxGeometry x="342" y="2818" width="108" height="23" as="geometry" />
        </mxCell>
        <mxCell id="xfxsIgeY6kW6B-Hptfqs-129" value="controller" style="text;strokeColor=none;align=center;fillColor=none;html=1;verticalAlign=middle;whiteSpace=wrap;rounded=0;" parent="1" vertex="1">
          <mxGeometry x="350" y="2836" width="50" height="23" as="geometry" />
        </mxCell>
        <mxCell id="xfxsIgeY6kW6B-Hptfqs-130" value="MAC" style="rounded=0;whiteSpace=wrap;html=1;fillColor=#fff2cc;strokeColor=#d6b656;" parent="1" vertex="1">
          <mxGeometry x="330" y="783" width="60" height="60" as="geometry" />
        </mxCell>
        <mxCell id="xfxsIgeY6kW6B-Hptfqs-131" value="" style="endArrow=classic;html=1;rounded=0;entryX=0;entryY=0.5;entryDx=0;entryDy=0;" parent="1" edge="1">
          <mxGeometry width="50" height="50" relative="1" as="geometry">
            <mxPoint x="90" y="787" as="sourcePoint" />
            <mxPoint x="296" y="786.5" as="targetPoint" />
          </mxGeometry>
        </mxCell>
        <mxCell id="xfxsIgeY6kW6B-Hptfqs-136" value="weight" style="edgeLabel;html=1;align=center;verticalAlign=middle;resizable=0;points=[];" parent="xfxsIgeY6kW6B-Hptfqs-131" vertex="1" connectable="0">
          <mxGeometry x="-0.2784" y="-1" relative="1" as="geometry">
            <mxPoint x="-25" y="-1" as="offset" />
          </mxGeometry>
        </mxCell>
        <mxCell id="xfxsIgeY6kW6B-Hptfqs-132" value="" style="shape=trapezoid;perimeter=trapezoidPerimeter;whiteSpace=wrap;html=1;fixedSize=1;size=7.5;rotation=90;" parent="1" vertex="1">
          <mxGeometry x="289" y="786.5" width="30" height="15" as="geometry" />
        </mxCell>
        <mxCell id="xfxsIgeY6kW6B-Hptfqs-133" value="FF" style="rounded=0;whiteSpace=wrap;html=1;fillColor=#dae8fc;strokeColor=#6c8ebf;" parent="1" vertex="1">
          <mxGeometry x="420" y="793" width="30" height="30" as="geometry" />
        </mxCell>
        <mxCell id="xfxsIgeY6kW6B-Hptfqs-134" value="" style="endArrow=classic;html=1;rounded=0;entryX=0;entryY=0.5;entryDx=0;entryDy=0;" parent="1" edge="1">
          <mxGeometry width="50" height="50" relative="1" as="geometry">
            <mxPoint x="250" y="811" as="sourcePoint" />
            <mxPoint x="296" y="801" as="targetPoint" />
            <Array as="points">
              <mxPoint x="270" y="811" />
              <mxPoint x="270" y="801" />
            </Array>
          </mxGeometry>
        </mxCell>
        <mxCell id="xfxsIgeY6kW6B-Hptfqs-135" value="" style="endArrow=classic;html=1;rounded=0;" parent="1" edge="1">
          <mxGeometry width="50" height="50" relative="1" as="geometry">
            <mxPoint x="312" y="793.75" as="sourcePoint" />
            <mxPoint x="329" y="794" as="targetPoint" />
          </mxGeometry>
        </mxCell>
        <mxCell id="xfxsIgeY6kW6B-Hptfqs-137" value="" style="endArrow=classic;html=1;rounded=0;entryX=0;entryY=0.5;entryDx=0;entryDy=0;" parent="1" target="xfxsIgeY6kW6B-Hptfqs-133" edge="1">
          <mxGeometry width="50" height="50" relative="1" as="geometry">
            <mxPoint x="390" y="807.86" as="sourcePoint" />
            <mxPoint x="407" y="808.11" as="targetPoint" />
          </mxGeometry>
        </mxCell>
        <mxCell id="xfxsIgeY6kW6B-Hptfqs-150" value="" style="endArrow=classic;html=1;rounded=0;entryX=0;entryY=0.5;entryDx=0;entryDy=0;" parent="1" edge="1">
          <mxGeometry width="50" height="50" relative="1" as="geometry">
            <mxPoint x="90" y="826" as="sourcePoint" />
            <mxPoint x="296" y="824.25" as="targetPoint" />
          </mxGeometry>
        </mxCell>
        <mxCell id="xfxsIgeY6kW6B-Hptfqs-151" value="input" style="edgeLabel;html=1;align=center;verticalAlign=middle;resizable=0;points=[];" parent="xfxsIgeY6kW6B-Hptfqs-150" vertex="1" connectable="0">
          <mxGeometry x="-0.2784" y="-1" relative="1" as="geometry">
            <mxPoint x="-25" y="-1" as="offset" />
          </mxGeometry>
        </mxCell>
        <mxCell id="xfxsIgeY6kW6B-Hptfqs-152" value="" style="shape=trapezoid;perimeter=trapezoidPerimeter;whiteSpace=wrap;html=1;fixedSize=1;size=7.5;rotation=90;" parent="1" vertex="1">
          <mxGeometry x="289" y="823.5" width="30" height="15" as="geometry" />
        </mxCell>
        <mxCell id="xfxsIgeY6kW6B-Hptfqs-155" value="" style="endArrow=classic;html=1;rounded=0;" parent="1" edge="1">
          <mxGeometry width="50" height="50" relative="1" as="geometry">
            <mxPoint x="312" y="830.75" as="sourcePoint" />
            <mxPoint x="329" y="831" as="targetPoint" />
          </mxGeometry>
        </mxCell>
        <mxCell id="xfxsIgeY6kW6B-Hptfqs-156" value="" style="endArrow=classic;html=1;rounded=0;entryX=0.5;entryY=1.033;entryDx=0;entryDy=0;entryPerimeter=0;" parent="1" target="xfxsIgeY6kW6B-Hptfqs-130" edge="1">
          <mxGeometry width="50" height="50" relative="1" as="geometry">
            <mxPoint x="360" y="863" as="sourcePoint" />
            <mxPoint x="360" y="853" as="targetPoint" />
          </mxGeometry>
        </mxCell>
        <mxCell id="xfxsIgeY6kW6B-Hptfqs-157" value="" style="shape=trapezoid;perimeter=trapezoidPerimeter;whiteSpace=wrap;html=1;fixedSize=1;size=7.5;rotation=0;" parent="1" vertex="1">
          <mxGeometry x="345" y="863" width="30" height="15" as="geometry" />
        </mxCell>
        <mxCell id="xfxsIgeY6kW6B-Hptfqs-158" value="" style="endArrow=classic;html=1;rounded=0;entryX=0.25;entryY=1;entryDx=0;entryDy=0;exitX=1;exitY=0.5;exitDx=0;exitDy=0;" parent="1" source="xfxsIgeY6kW6B-Hptfqs-171" edge="1">
          <mxGeometry width="50" height="50" relative="1" as="geometry">
            <mxPoint x="340" y="903" as="sourcePoint" />
            <mxPoint x="351.5" y="878" as="targetPoint" />
            <Array as="points">
              <mxPoint x="351" y="903" />
            </Array>
          </mxGeometry>
        </mxCell>
        <mxCell id="xfxsIgeY6kW6B-Hptfqs-164" value="" style="endArrow=classic;html=1;rounded=0;exitX=0.5;exitY=1;exitDx=0;exitDy=0;entryX=0.75;entryY=1;entryDx=0;entryDy=0;" parent="1" source="xfxsIgeY6kW6B-Hptfqs-133" target="xfxsIgeY6kW6B-Hptfqs-157" edge="1">
          <mxGeometry width="50" height="50" relative="1" as="geometry">
            <mxPoint x="340" y="923" as="sourcePoint" />
            <mxPoint x="390" y="873" as="targetPoint" />
            <Array as="points">
              <mxPoint x="436" y="943" />
              <mxPoint x="367" y="943" />
            </Array>
          </mxGeometry>
        </mxCell>
        <mxCell id="xfxsIgeY6kW6B-Hptfqs-165" value="&lt;div&gt;partial&lt;/div&gt;&lt;div&gt;sum&lt;br&gt;&lt;/div&gt;" style="edgeLabel;html=1;align=center;verticalAlign=middle;resizable=0;points=[];" parent="xfxsIgeY6kW6B-Hptfqs-164" vertex="1" connectable="0">
          <mxGeometry x="0.2138" y="1" relative="1" as="geometry">
            <mxPoint x="-31" y="-31" as="offset" />
          </mxGeometry>
        </mxCell>
        <mxCell id="xfxsIgeY6kW6B-Hptfqs-169" style="edgeStyle=orthogonalEdgeStyle;rounded=0;orthogonalLoop=1;jettySize=auto;html=1;entryX=0.75;entryY=1;entryDx=0;entryDy=0;" parent="1" source="xfxsIgeY6kW6B-Hptfqs-166" target="xfxsIgeY6kW6B-Hptfqs-152" edge="1">
          <mxGeometry relative="1" as="geometry">
            <mxPoint x="190" y="853" as="targetPoint" />
            <Array as="points">
              <mxPoint x="190" y="943" />
              <mxPoint x="190" y="839" />
            </Array>
          </mxGeometry>
        </mxCell>
        <mxCell id="xfxsIgeY6kW6B-Hptfqs-170" value="conv result" style="edgeLabel;html=1;align=center;verticalAlign=middle;resizable=0;points=[];" parent="xfxsIgeY6kW6B-Hptfqs-169" vertex="1" connectable="0">
          <mxGeometry x="0.7928" y="-1" relative="1" as="geometry">
            <mxPoint x="-28" y="-2" as="offset" />
          </mxGeometry>
        </mxCell>
        <mxCell id="xfxsIgeY6kW6B-Hptfqs-166" value="" style="shape=waypoint;sketch=0;fillStyle=solid;size=6;pointerEvents=1;points=[];fillColor=none;resizable=0;rotatable=0;perimeter=centerPerimeter;snapToPoint=1;" parent="1" vertex="1">
          <mxGeometry x="357" y="933" width="20" height="20" as="geometry" />
        </mxCell>
        <mxCell id="xfxsIgeY6kW6B-Hptfqs-171" value="&lt;span style=&quot;font-family: Arial, sans-serif; text-align: left;&quot;&gt;&lt;font style=&quot;color: rgb(0, 0, 0);&quot;&gt;β&lt;/font&gt;&lt;/span&gt;" style="rounded=0;whiteSpace=wrap;html=1;fillColor=#dae8fc;strokeColor=#6c8ebf;" parent="1" vertex="1">
          <mxGeometry x="311" y="893" width="28" height="20" as="geometry" />
        </mxCell>
        <mxCell id="xfxsIgeY6kW6B-Hptfqs-172" value="&lt;font&gt;α&lt;/font&gt;" style="rounded=0;whiteSpace=wrap;html=1;fillColor=#dae8fc;strokeColor=#6c8ebf;" parent="1" vertex="1">
          <mxGeometry x="225" y="799.5" width="25" height="20" as="geometry" />
        </mxCell>
        <mxCell id="xfxsIgeY6kW6B-Hptfqs-177" style="edgeStyle=orthogonalEdgeStyle;rounded=0;orthogonalLoop=1;jettySize=auto;html=1;" parent="1" source="xfxsIgeY6kW6B-Hptfqs-174" edge="1">
          <mxGeometry relative="1" as="geometry">
            <mxPoint x="520" y="740" as="targetPoint" />
            <Array as="points">
              <mxPoint x="271" y="740" />
              <mxPoint x="520" y="740" />
            </Array>
          </mxGeometry>
        </mxCell>
        <mxCell id="iXs-68Qg5wSXXJZjbfNh-93" value="weight" style="edgeLabel;html=1;align=center;verticalAlign=middle;resizable=0;points=[];" parent="xfxsIgeY6kW6B-Hptfqs-177" vertex="1" connectable="0">
          <mxGeometry x="0.4113" y="1" relative="1" as="geometry">
            <mxPoint x="58" as="offset" />
          </mxGeometry>
        </mxCell>
        <mxCell id="xfxsIgeY6kW6B-Hptfqs-174" value="" style="shape=waypoint;sketch=0;fillStyle=solid;size=6;pointerEvents=1;points=[];fillColor=none;resizable=0;rotatable=0;perimeter=centerPerimeter;snapToPoint=1;" parent="1" vertex="1">
          <mxGeometry x="261" y="777" width="20" height="20" as="geometry" />
        </mxCell>
        <mxCell id="xfxsIgeY6kW6B-Hptfqs-179" style="edgeStyle=orthogonalEdgeStyle;rounded=0;orthogonalLoop=1;jettySize=auto;html=1;jumpStyle=arc;" parent="1" source="xfxsIgeY6kW6B-Hptfqs-178" edge="1">
          <mxGeometry relative="1" as="geometry">
            <mxPoint x="520" y="763" as="targetPoint" />
            <Array as="points">
              <mxPoint x="279" y="763" />
              <mxPoint x="520" y="763" />
            </Array>
          </mxGeometry>
        </mxCell>
        <mxCell id="iXs-68Qg5wSXXJZjbfNh-94" value="input" style="edgeLabel;html=1;align=center;verticalAlign=middle;resizable=0;points=[];" parent="xfxsIgeY6kW6B-Hptfqs-179" vertex="1" connectable="0">
          <mxGeometry x="0.626" y="-1" relative="1" as="geometry">
            <mxPoint x="27" y="-1" as="offset" />
          </mxGeometry>
        </mxCell>
        <mxCell id="xfxsIgeY6kW6B-Hptfqs-178" value="" style="shape=waypoint;sketch=0;fillStyle=solid;size=6;pointerEvents=1;points=[];fillColor=none;resizable=0;rotatable=0;perimeter=centerPerimeter;snapToPoint=1;" parent="1" vertex="1">
          <mxGeometry x="269" y="815" width="20" height="20" as="geometry" />
        </mxCell>
        <mxCell id="xfxsIgeY6kW6B-Hptfqs-208" value="" style="endArrow=none;html=1;rounded=0;fillColor=#dae8fc;strokeColor=#A9C4EB;strokeWidth=5;" parent="1" edge="1">
          <mxGeometry width="50" height="50" relative="1" as="geometry">
            <mxPoint x="493" y="922" as="sourcePoint" />
            <mxPoint x="523" y="922" as="targetPoint" />
          </mxGeometry>
        </mxCell>
        <mxCell id="xfxsIgeY6kW6B-Hptfqs-209" value="" style="endArrow=none;html=1;rounded=0;fillColor=#fff2cc;strokeColor=#FFCC99;strokeWidth=5;" parent="1" edge="1">
          <mxGeometry width="50" height="50" relative="1" as="geometry">
            <mxPoint x="493" y="942" as="sourcePoint" />
            <mxPoint x="523" y="942" as="targetPoint" />
          </mxGeometry>
        </mxCell>
        <mxCell id="xfxsIgeY6kW6B-Hptfqs-210" value="" style="endArrow=none;html=1;rounded=0;fillColor=#f8cecc;strokeColor=#FF9999;strokeWidth=5;" parent="1" edge="1">
          <mxGeometry width="50" height="50" relative="1" as="geometry">
            <mxPoint x="493" y="961" as="sourcePoint" />
            <mxPoint x="523" y="961" as="targetPoint" />
          </mxGeometry>
        </mxCell>
        <mxCell id="xfxsIgeY6kW6B-Hptfqs-211" value="buffer" style="text;strokeColor=none;align=center;fillColor=none;html=1;verticalAlign=middle;whiteSpace=wrap;rounded=0;" parent="1" vertex="1">
          <mxGeometry x="523" y="909" width="50" height="23" as="geometry" />
        </mxCell>
        <mxCell id="xfxsIgeY6kW6B-Hptfqs-212" value="nn &lt;span data-huuid=&quot;6847076873437157149&quot;&gt;&lt;span&gt;arith. logic unit&lt;/span&gt;&lt;/span&gt;" style="text;strokeColor=none;align=center;fillColor=none;html=1;verticalAlign=middle;whiteSpace=wrap;rounded=0;" parent="1" vertex="1">
          <mxGeometry x="523" y="932" width="108" height="23" as="geometry" />
        </mxCell>
        <mxCell id="xfxsIgeY6kW6B-Hptfqs-213" value="controller" style="text;strokeColor=none;align=center;fillColor=none;html=1;verticalAlign=middle;whiteSpace=wrap;rounded=0;" parent="1" vertex="1">
          <mxGeometry x="531" y="950" width="50" height="23" as="geometry" />
        </mxCell>
        <mxCell id="xfxsIgeY6kW6B-Hptfqs-214" value="" style="rounded=0;whiteSpace=wrap;html=1;" parent="1" vertex="1">
          <mxGeometry x="239.5" y="1680" width="331" height="230" as="geometry" />
        </mxCell>
        <mxCell id="xfxsIgeY6kW6B-Hptfqs-215" value="MAC" style="rounded=0;whiteSpace=wrap;html=1;fillColor=#fff2cc;strokeColor=#d6b656;" parent="1" vertex="1">
          <mxGeometry x="430.5" y="1720" width="60" height="60" as="geometry" />
        </mxCell>
        <mxCell id="xfxsIgeY6kW6B-Hptfqs-216" value="" style="endArrow=classic;html=1;rounded=0;entryX=0;entryY=0.5;entryDx=0;entryDy=0;fillColor=#e51400;strokeColor=#B20000;" parent="1" edge="1">
          <mxGeometry width="50" height="50" relative="1" as="geometry">
            <mxPoint x="190.5" y="1724" as="sourcePoint" />
            <mxPoint x="396.5" y="1723.5" as="targetPoint" />
          </mxGeometry>
        </mxCell>
        <mxCell id="xfxsIgeY6kW6B-Hptfqs-217" value="weight" style="edgeLabel;html=1;align=center;verticalAlign=middle;resizable=0;points=[];" parent="xfxsIgeY6kW6B-Hptfqs-216" vertex="1" connectable="0">
          <mxGeometry x="-0.2784" y="-1" relative="1" as="geometry">
            <mxPoint x="-55" y="-1" as="offset" />
          </mxGeometry>
        </mxCell>
        <mxCell id="xfxsIgeY6kW6B-Hptfqs-218" value="" style="shape=trapezoid;perimeter=trapezoidPerimeter;whiteSpace=wrap;html=1;fixedSize=1;size=7.5;rotation=90;" parent="1" vertex="1">
          <mxGeometry x="389.5" y="1723.5" width="30" height="15" as="geometry" />
        </mxCell>
        <mxCell id="xfxsIgeY6kW6B-Hptfqs-219" value="FF" style="rounded=0;whiteSpace=wrap;html=1;fillColor=#dae8fc;strokeColor=#6c8ebf;" parent="1" vertex="1">
          <mxGeometry x="520.5" y="1730" width="30" height="30" as="geometry" />
        </mxCell>
        <mxCell id="xfxsIgeY6kW6B-Hptfqs-221" value="" style="endArrow=classic;html=1;rounded=0;fillColor=#e51400;strokeColor=#B20000;" parent="1" edge="1">
          <mxGeometry width="50" height="50" relative="1" as="geometry">
            <mxPoint x="412.5" y="1730.75" as="sourcePoint" />
            <mxPoint x="429.5" y="1731" as="targetPoint" />
          </mxGeometry>
        </mxCell>
        <mxCell id="xfxsIgeY6kW6B-Hptfqs-222" value="" style="endArrow=classic;html=1;rounded=0;entryX=0;entryY=0.5;entryDx=0;entryDy=0;fillColor=#e51400;strokeColor=#B20000;" parent="1" target="xfxsIgeY6kW6B-Hptfqs-219" edge="1">
          <mxGeometry width="50" height="50" relative="1" as="geometry">
            <mxPoint x="490.5" y="1744.8600000000001" as="sourcePoint" />
            <mxPoint x="507.5" y="1745.1100000000001" as="targetPoint" />
          </mxGeometry>
        </mxCell>
        <mxCell id="xfxsIgeY6kW6B-Hptfqs-223" value="" style="endArrow=classic;html=1;rounded=0;entryX=0;entryY=0.5;entryDx=0;entryDy=0;fillColor=#e51400;strokeColor=#B20000;" parent="1" edge="1">
          <mxGeometry width="50" height="50" relative="1" as="geometry">
            <mxPoint x="190.5" y="1763" as="sourcePoint" />
            <mxPoint x="396.5" y="1761.25" as="targetPoint" />
          </mxGeometry>
        </mxCell>
        <mxCell id="xfxsIgeY6kW6B-Hptfqs-224" value="input" style="edgeLabel;html=1;align=center;verticalAlign=middle;resizable=0;points=[];" parent="xfxsIgeY6kW6B-Hptfqs-223" vertex="1" connectable="0">
          <mxGeometry x="-0.2784" y="-1" relative="1" as="geometry">
            <mxPoint x="-55" y="-1" as="offset" />
          </mxGeometry>
        </mxCell>
        <mxCell id="xfxsIgeY6kW6B-Hptfqs-225" value="" style="shape=trapezoid;perimeter=trapezoidPerimeter;whiteSpace=wrap;html=1;fixedSize=1;size=7.5;rotation=90;" parent="1" vertex="1">
          <mxGeometry x="389.5" y="1760.5" width="30" height="15" as="geometry" />
        </mxCell>
        <mxCell id="xfxsIgeY6kW6B-Hptfqs-226" value="" style="endArrow=classic;html=1;rounded=0;fillColor=#e51400;strokeColor=#B20000;" parent="1" edge="1">
          <mxGeometry width="50" height="50" relative="1" as="geometry">
            <mxPoint x="412.5" y="1767.75" as="sourcePoint" />
            <mxPoint x="429.5" y="1768" as="targetPoint" />
          </mxGeometry>
        </mxCell>
        <mxCell id="xfxsIgeY6kW6B-Hptfqs-227" value="" style="endArrow=classic;html=1;rounded=0;entryX=0.5;entryY=1.033;entryDx=0;entryDy=0;entryPerimeter=0;fillColor=#e51400;strokeColor=#B20000;" parent="1" target="xfxsIgeY6kW6B-Hptfqs-215" edge="1">
          <mxGeometry width="50" height="50" relative="1" as="geometry">
            <mxPoint x="460.5" y="1800" as="sourcePoint" />
            <mxPoint x="460.5" y="1790" as="targetPoint" />
          </mxGeometry>
        </mxCell>
        <mxCell id="xfxsIgeY6kW6B-Hptfqs-228" value="" style="shape=trapezoid;perimeter=trapezoidPerimeter;whiteSpace=wrap;html=1;fixedSize=1;size=7.5;rotation=0;" parent="1" vertex="1">
          <mxGeometry x="445.5" y="1800" width="30" height="15" as="geometry" />
        </mxCell>
        <mxCell id="xfxsIgeY6kW6B-Hptfqs-229" value="" style="endArrow=classic;html=1;rounded=0;entryX=0.25;entryY=1;entryDx=0;entryDy=0;exitX=1;exitY=0.5;exitDx=0;exitDy=0;" parent="1" source="xfxsIgeY6kW6B-Hptfqs-235" edge="1">
          <mxGeometry width="50" height="50" relative="1" as="geometry">
            <mxPoint x="440.5" y="1840" as="sourcePoint" />
            <mxPoint x="452" y="1815" as="targetPoint" />
            <Array as="points">
              <mxPoint x="451.5" y="1840" />
            </Array>
          </mxGeometry>
        </mxCell>
        <mxCell id="xfxsIgeY6kW6B-Hptfqs-230" value="" style="endArrow=classic;html=1;rounded=0;exitX=0.5;exitY=1;exitDx=0;exitDy=0;entryX=0.75;entryY=1;entryDx=0;entryDy=0;fillColor=#e51400;strokeColor=#B20000;" parent="1" source="xfxsIgeY6kW6B-Hptfqs-219" target="xfxsIgeY6kW6B-Hptfqs-228" edge="1">
          <mxGeometry width="50" height="50" relative="1" as="geometry">
            <mxPoint x="440.5" y="1860" as="sourcePoint" />
            <mxPoint x="490.5" y="1810" as="targetPoint" />
            <Array as="points">
              <mxPoint x="536.5" y="1880" />
              <mxPoint x="467.5" y="1880" />
            </Array>
          </mxGeometry>
        </mxCell>
        <mxCell id="xfxsIgeY6kW6B-Hptfqs-231" value="&lt;div&gt;partial&lt;/div&gt;&lt;div&gt;sum&lt;br&gt;&lt;/div&gt;" style="edgeLabel;html=1;align=center;verticalAlign=middle;resizable=0;points=[];" parent="xfxsIgeY6kW6B-Hptfqs-230" vertex="1" connectable="0">
          <mxGeometry x="0.2138" y="1" relative="1" as="geometry">
            <mxPoint x="-31" y="-31" as="offset" />
          </mxGeometry>
        </mxCell>
        <mxCell id="xfxsIgeY6kW6B-Hptfqs-232" style="edgeStyle=orthogonalEdgeStyle;rounded=0;orthogonalLoop=1;jettySize=auto;html=1;entryX=0.75;entryY=1;entryDx=0;entryDy=0;" parent="1" source="xfxsIgeY6kW6B-Hptfqs-234" target="xfxsIgeY6kW6B-Hptfqs-225" edge="1">
          <mxGeometry relative="1" as="geometry">
            <mxPoint x="290.5" y="1790" as="targetPoint" />
            <Array as="points">
              <mxPoint x="290.5" y="1880" />
              <mxPoint x="290.5" y="1776" />
            </Array>
          </mxGeometry>
        </mxCell>
        <mxCell id="xfxsIgeY6kW6B-Hptfqs-233" value="conv result" style="edgeLabel;html=1;align=center;verticalAlign=middle;resizable=0;points=[];" parent="xfxsIgeY6kW6B-Hptfqs-232" vertex="1" connectable="0">
          <mxGeometry x="0.7928" y="-1" relative="1" as="geometry">
            <mxPoint x="-28" y="-2" as="offset" />
          </mxGeometry>
        </mxCell>
        <mxCell id="xfxsIgeY6kW6B-Hptfqs-234" value="" style="shape=waypoint;sketch=0;fillStyle=solid;size=6;pointerEvents=1;points=[];fillColor=none;resizable=0;rotatable=0;perimeter=centerPerimeter;snapToPoint=1;" parent="1" vertex="1">
          <mxGeometry x="457.5" y="1870" width="20" height="20" as="geometry" />
        </mxCell>
        <mxCell id="xfxsIgeY6kW6B-Hptfqs-235" value="&lt;font style=&quot;font-size: 10px;&quot;&gt;belta&lt;/font&gt;" style="rounded=0;whiteSpace=wrap;html=1;fillColor=#dae8fc;strokeColor=#6c8ebf;" parent="1" vertex="1">
          <mxGeometry x="411.5" y="1830" width="28" height="20" as="geometry" />
        </mxCell>
        <mxCell id="xfxsIgeY6kW6B-Hptfqs-237" style="edgeStyle=orthogonalEdgeStyle;rounded=0;orthogonalLoop=1;jettySize=auto;html=1;fillColor=#e51400;strokeColor=#B20000;" parent="1" source="xfxsIgeY6kW6B-Hptfqs-238" edge="1">
          <mxGeometry relative="1" as="geometry">
            <mxPoint x="620" y="1690" as="targetPoint" />
            <Array as="points">
              <mxPoint x="372" y="1690" />
            </Array>
          </mxGeometry>
        </mxCell>
        <mxCell id="xfxsIgeY6kW6B-Hptfqs-238" value="" style="shape=waypoint;sketch=0;fillStyle=solid;size=6;pointerEvents=1;points=[];fillColor=none;resizable=0;rotatable=0;perimeter=centerPerimeter;snapToPoint=1;" parent="1" vertex="1">
          <mxGeometry x="361.5" y="1714" width="20" height="20" as="geometry" />
        </mxCell>
        <mxCell id="xfxsIgeY6kW6B-Hptfqs-239" style="edgeStyle=orthogonalEdgeStyle;rounded=0;orthogonalLoop=1;jettySize=auto;html=1;fillColor=#e51400;strokeColor=#B20000;" parent="1" source="xfxsIgeY6kW6B-Hptfqs-240" edge="1">
          <mxGeometry relative="1" as="geometry">
            <mxPoint x="620" y="1700" as="targetPoint" />
            <Array as="points">
              <mxPoint x="380" y="1700" />
            </Array>
          </mxGeometry>
        </mxCell>
        <mxCell id="xfxsIgeY6kW6B-Hptfqs-240" value="" style="shape=waypoint;sketch=0;fillStyle=solid;size=6;pointerEvents=1;points=[];fillColor=none;resizable=0;rotatable=0;perimeter=centerPerimeter;snapToPoint=1;" parent="1" vertex="1">
          <mxGeometry x="369.5" y="1752" width="20" height="20" as="geometry" />
        </mxCell>
        <mxCell id="xfxsIgeY6kW6B-Hptfqs-241" value="" style="endArrow=none;html=1;rounded=0;fillColor=#dae8fc;strokeColor=#A9C4EB;strokeWidth=5;" parent="1" edge="1">
          <mxGeometry width="50" height="50" relative="1" as="geometry">
            <mxPoint x="593.5" y="1859" as="sourcePoint" />
            <mxPoint x="623.5" y="1859" as="targetPoint" />
          </mxGeometry>
        </mxCell>
        <mxCell id="xfxsIgeY6kW6B-Hptfqs-242" value="" style="endArrow=none;html=1;rounded=0;fillColor=#fff2cc;strokeColor=#FFCC99;strokeWidth=5;" parent="1" edge="1">
          <mxGeometry width="50" height="50" relative="1" as="geometry">
            <mxPoint x="593.5" y="1879" as="sourcePoint" />
            <mxPoint x="623.5" y="1879" as="targetPoint" />
          </mxGeometry>
        </mxCell>
        <mxCell id="xfxsIgeY6kW6B-Hptfqs-243" value="" style="endArrow=none;html=1;rounded=0;fillColor=#f8cecc;strokeColor=#FF9999;strokeWidth=5;" parent="1" edge="1">
          <mxGeometry width="50" height="50" relative="1" as="geometry">
            <mxPoint x="593.5" y="1898" as="sourcePoint" />
            <mxPoint x="623.5" y="1898" as="targetPoint" />
          </mxGeometry>
        </mxCell>
        <mxCell id="xfxsIgeY6kW6B-Hptfqs-244" value="buffer" style="text;strokeColor=none;align=center;fillColor=none;html=1;verticalAlign=middle;whiteSpace=wrap;rounded=0;" parent="1" vertex="1">
          <mxGeometry x="623.5" y="1846" width="50" height="23" as="geometry" />
        </mxCell>
        <mxCell id="xfxsIgeY6kW6B-Hptfqs-245" value="nn &lt;span data-huuid=&quot;6847076873437157149&quot;&gt;&lt;span&gt;arith. logic unit&lt;/span&gt;&lt;/span&gt;" style="text;strokeColor=none;align=center;fillColor=none;html=1;verticalAlign=middle;whiteSpace=wrap;rounded=0;" parent="1" vertex="1">
          <mxGeometry x="623.5" y="1869" width="108" height="23" as="geometry" />
        </mxCell>
        <mxCell id="xfxsIgeY6kW6B-Hptfqs-246" value="controller" style="text;strokeColor=none;align=center;fillColor=none;html=1;verticalAlign=middle;whiteSpace=wrap;rounded=0;" parent="1" vertex="1">
          <mxGeometry x="631.5" y="1887" width="50" height="23" as="geometry" />
        </mxCell>
        <mxCell id="xfxsIgeY6kW6B-Hptfqs-247" value="" style="rounded=0;whiteSpace=wrap;html=1;" parent="1" vertex="1">
          <mxGeometry x="241" y="2054" width="331" height="230" as="geometry" />
        </mxCell>
        <mxCell id="xfxsIgeY6kW6B-Hptfqs-248" value="MAC" style="rounded=0;whiteSpace=wrap;html=1;fillColor=#fff2cc;strokeColor=#d6b656;" parent="1" vertex="1">
          <mxGeometry x="432" y="2094" width="60" height="60" as="geometry" />
        </mxCell>
        <mxCell id="xfxsIgeY6kW6B-Hptfqs-249" value="" style="endArrow=classic;html=1;rounded=0;entryX=0;entryY=0.5;entryDx=0;entryDy=0;" parent="1" edge="1">
          <mxGeometry width="50" height="50" relative="1" as="geometry">
            <mxPoint x="192" y="2098" as="sourcePoint" />
            <mxPoint x="398" y="2097.5" as="targetPoint" />
          </mxGeometry>
        </mxCell>
        <mxCell id="xfxsIgeY6kW6B-Hptfqs-250" value="weight" style="edgeLabel;html=1;align=center;verticalAlign=middle;resizable=0;points=[];" parent="xfxsIgeY6kW6B-Hptfqs-249" vertex="1" connectable="0">
          <mxGeometry x="-0.2784" y="-1" relative="1" as="geometry">
            <mxPoint x="-55" y="-1" as="offset" />
          </mxGeometry>
        </mxCell>
        <mxCell id="xfxsIgeY6kW6B-Hptfqs-251" value="" style="shape=trapezoid;perimeter=trapezoidPerimeter;whiteSpace=wrap;html=1;fixedSize=1;size=7.5;rotation=90;" parent="1" vertex="1">
          <mxGeometry x="391" y="2097.5" width="30" height="15" as="geometry" />
        </mxCell>
        <mxCell id="xfxsIgeY6kW6B-Hptfqs-252" value="FF" style="rounded=0;whiteSpace=wrap;html=1;fillColor=#dae8fc;strokeColor=#6c8ebf;" parent="1" vertex="1">
          <mxGeometry x="522" y="2104" width="30" height="30" as="geometry" />
        </mxCell>
        <mxCell id="xfxsIgeY6kW6B-Hptfqs-254" value="" style="endArrow=classic;html=1;rounded=0;" parent="1" edge="1">
          <mxGeometry width="50" height="50" relative="1" as="geometry">
            <mxPoint x="414" y="2104.75" as="sourcePoint" />
            <mxPoint x="431" y="2105" as="targetPoint" />
          </mxGeometry>
        </mxCell>
        <mxCell id="xfxsIgeY6kW6B-Hptfqs-255" value="" style="endArrow=classic;html=1;rounded=0;entryX=0;entryY=0.5;entryDx=0;entryDy=0;" parent="1" target="xfxsIgeY6kW6B-Hptfqs-252" edge="1">
          <mxGeometry width="50" height="50" relative="1" as="geometry">
            <mxPoint x="492" y="2118.86" as="sourcePoint" />
            <mxPoint x="509" y="2119.11" as="targetPoint" />
          </mxGeometry>
        </mxCell>
        <mxCell id="xfxsIgeY6kW6B-Hptfqs-256" value="" style="endArrow=classic;html=1;rounded=0;entryX=0;entryY=0.5;entryDx=0;entryDy=0;" parent="1" edge="1">
          <mxGeometry width="50" height="50" relative="1" as="geometry">
            <mxPoint x="192" y="2137" as="sourcePoint" />
            <mxPoint x="398" y="2135.25" as="targetPoint" />
          </mxGeometry>
        </mxCell>
        <mxCell id="xfxsIgeY6kW6B-Hptfqs-257" value="input" style="edgeLabel;html=1;align=center;verticalAlign=middle;resizable=0;points=[];" parent="xfxsIgeY6kW6B-Hptfqs-256" vertex="1" connectable="0">
          <mxGeometry x="-0.2784" y="-1" relative="1" as="geometry">
            <mxPoint x="-55" y="-1" as="offset" />
          </mxGeometry>
        </mxCell>
        <mxCell id="xfxsIgeY6kW6B-Hptfqs-258" value="" style="shape=trapezoid;perimeter=trapezoidPerimeter;whiteSpace=wrap;html=1;fixedSize=1;size=7.5;rotation=90;" parent="1" vertex="1">
          <mxGeometry x="391" y="2134.5" width="30" height="15" as="geometry" />
        </mxCell>
        <mxCell id="xfxsIgeY6kW6B-Hptfqs-259" value="" style="endArrow=classic;html=1;rounded=0;" parent="1" edge="1">
          <mxGeometry width="50" height="50" relative="1" as="geometry">
            <mxPoint x="414" y="2141.75" as="sourcePoint" />
            <mxPoint x="431" y="2142" as="targetPoint" />
          </mxGeometry>
        </mxCell>
        <mxCell id="xfxsIgeY6kW6B-Hptfqs-260" value="" style="endArrow=classic;html=1;rounded=0;entryX=0.5;entryY=1.033;entryDx=0;entryDy=0;entryPerimeter=0;fillColor=#e51400;strokeColor=#B20000;" parent="1" target="xfxsIgeY6kW6B-Hptfqs-248" edge="1">
          <mxGeometry width="50" height="50" relative="1" as="geometry">
            <mxPoint x="462" y="2174" as="sourcePoint" />
            <mxPoint x="462" y="2164" as="targetPoint" />
          </mxGeometry>
        </mxCell>
        <mxCell id="xfxsIgeY6kW6B-Hptfqs-261" value="" style="shape=trapezoid;perimeter=trapezoidPerimeter;whiteSpace=wrap;html=1;fixedSize=1;size=7.5;rotation=0;" parent="1" vertex="1">
          <mxGeometry x="447" y="2174" width="30" height="15" as="geometry" />
        </mxCell>
        <mxCell id="xfxsIgeY6kW6B-Hptfqs-262" value="" style="endArrow=classic;html=1;rounded=0;entryX=0.25;entryY=1;entryDx=0;entryDy=0;exitX=1;exitY=0.5;exitDx=0;exitDy=0;fillColor=#e51400;strokeColor=#B20000;" parent="1" source="xfxsIgeY6kW6B-Hptfqs-268" edge="1">
          <mxGeometry width="50" height="50" relative="1" as="geometry">
            <mxPoint x="442" y="2214" as="sourcePoint" />
            <mxPoint x="453.5" y="2189" as="targetPoint" />
            <Array as="points">
              <mxPoint x="453" y="2214" />
            </Array>
          </mxGeometry>
        </mxCell>
        <mxCell id="xfxsIgeY6kW6B-Hptfqs-265" style="edgeStyle=orthogonalEdgeStyle;rounded=0;orthogonalLoop=1;jettySize=auto;html=1;entryX=0.75;entryY=1;entryDx=0;entryDy=0;fillColor=#e51400;strokeColor=#B20000;" parent="1" source="xfxsIgeY6kW6B-Hptfqs-267" target="xfxsIgeY6kW6B-Hptfqs-258" edge="1">
          <mxGeometry relative="1" as="geometry">
            <mxPoint x="292" y="2164" as="targetPoint" />
            <Array as="points">
              <mxPoint x="292" y="2254" />
              <mxPoint x="292" y="2150" />
            </Array>
          </mxGeometry>
        </mxCell>
        <mxCell id="xfxsIgeY6kW6B-Hptfqs-266" value="conv result" style="edgeLabel;html=1;align=center;verticalAlign=middle;resizable=0;points=[];" parent="xfxsIgeY6kW6B-Hptfqs-265" vertex="1" connectable="0">
          <mxGeometry x="0.7928" y="-1" relative="1" as="geometry">
            <mxPoint x="-28" y="-2" as="offset" />
          </mxGeometry>
        </mxCell>
        <mxCell id="xfxsIgeY6kW6B-Hptfqs-283" style="edgeStyle=orthogonalEdgeStyle;rounded=0;orthogonalLoop=1;jettySize=auto;html=1;entryX=0.75;entryY=1;entryDx=0;entryDy=0;" parent="1" source="xfxsIgeY6kW6B-Hptfqs-267" target="xfxsIgeY6kW6B-Hptfqs-261" edge="1">
          <mxGeometry relative="1" as="geometry" />
        </mxCell>
        <mxCell id="xfxsIgeY6kW6B-Hptfqs-267" value="" style="shape=waypoint;sketch=0;fillStyle=solid;size=6;pointerEvents=1;points=[];fillColor=none;resizable=0;rotatable=0;perimeter=centerPerimeter;snapToPoint=1;" parent="1" vertex="1">
          <mxGeometry x="459" y="2244" width="20" height="20" as="geometry" />
        </mxCell>
        <mxCell id="xfxsIgeY6kW6B-Hptfqs-268" value="&lt;font style=&quot;font-size: 10px;&quot;&gt;belta&lt;/font&gt;" style="rounded=0;whiteSpace=wrap;html=1;fillColor=#dae8fc;strokeColor=#6c8ebf;" parent="1" vertex="1">
          <mxGeometry x="413" y="2204" width="28" height="20" as="geometry" />
        </mxCell>
        <mxCell id="xfxsIgeY6kW6B-Hptfqs-269" value="&lt;font style=&quot;font-size: 9px;&quot;&gt;alpha&lt;/font&gt;" style="rounded=0;whiteSpace=wrap;html=1;fillColor=#dae8fc;strokeColor=#6c8ebf;" parent="1" vertex="1">
          <mxGeometry x="203" y="2000" width="38" height="20" as="geometry" />
        </mxCell>
        <mxCell id="xfxsIgeY6kW6B-Hptfqs-270" style="edgeStyle=orthogonalEdgeStyle;rounded=0;orthogonalLoop=1;jettySize=auto;html=1;" parent="1" source="xfxsIgeY6kW6B-Hptfqs-271" edge="1">
          <mxGeometry relative="1" as="geometry">
            <mxPoint x="620" y="2064" as="targetPoint" />
            <Array as="points">
              <mxPoint x="373" y="2064" />
            </Array>
          </mxGeometry>
        </mxCell>
        <mxCell id="xfxsIgeY6kW6B-Hptfqs-271" value="" style="shape=waypoint;sketch=0;fillStyle=solid;size=6;pointerEvents=1;points=[];fillColor=none;resizable=0;rotatable=0;perimeter=centerPerimeter;snapToPoint=1;" parent="1" vertex="1">
          <mxGeometry x="363" y="2088" width="20" height="20" as="geometry" />
        </mxCell>
        <mxCell id="xfxsIgeY6kW6B-Hptfqs-272" style="edgeStyle=orthogonalEdgeStyle;rounded=0;orthogonalLoop=1;jettySize=auto;html=1;" parent="1" source="xfxsIgeY6kW6B-Hptfqs-273" edge="1">
          <mxGeometry relative="1" as="geometry">
            <mxPoint x="620" y="2074" as="targetPoint" />
            <Array as="points">
              <mxPoint x="381" y="2074" />
            </Array>
          </mxGeometry>
        </mxCell>
        <mxCell id="xfxsIgeY6kW6B-Hptfqs-273" value="" style="shape=waypoint;sketch=0;fillStyle=solid;size=6;pointerEvents=1;points=[];fillColor=none;resizable=0;rotatable=0;perimeter=centerPerimeter;snapToPoint=1;" parent="1" vertex="1">
          <mxGeometry x="371" y="2126" width="20" height="20" as="geometry" />
        </mxCell>
        <mxCell id="xfxsIgeY6kW6B-Hptfqs-274" value="" style="endArrow=none;html=1;rounded=0;fillColor=#dae8fc;strokeColor=#A9C4EB;strokeWidth=5;" parent="1" edge="1">
          <mxGeometry width="50" height="50" relative="1" as="geometry">
            <mxPoint x="595" y="2233" as="sourcePoint" />
            <mxPoint x="625" y="2233" as="targetPoint" />
          </mxGeometry>
        </mxCell>
        <mxCell id="xfxsIgeY6kW6B-Hptfqs-275" value="" style="endArrow=none;html=1;rounded=0;fillColor=#fff2cc;strokeColor=#FFCC99;strokeWidth=5;" parent="1" edge="1">
          <mxGeometry width="50" height="50" relative="1" as="geometry">
            <mxPoint x="595" y="2253" as="sourcePoint" />
            <mxPoint x="625" y="2253" as="targetPoint" />
          </mxGeometry>
        </mxCell>
        <mxCell id="xfxsIgeY6kW6B-Hptfqs-276" value="" style="endArrow=none;html=1;rounded=0;fillColor=#f8cecc;strokeColor=#FF9999;strokeWidth=5;" parent="1" edge="1">
          <mxGeometry width="50" height="50" relative="1" as="geometry">
            <mxPoint x="595" y="2272" as="sourcePoint" />
            <mxPoint x="625" y="2272" as="targetPoint" />
          </mxGeometry>
        </mxCell>
        <mxCell id="xfxsIgeY6kW6B-Hptfqs-277" value="buffer" style="text;strokeColor=none;align=center;fillColor=none;html=1;verticalAlign=middle;whiteSpace=wrap;rounded=0;" parent="1" vertex="1">
          <mxGeometry x="625" y="2220" width="50" height="23" as="geometry" />
        </mxCell>
        <mxCell id="xfxsIgeY6kW6B-Hptfqs-278" value="nn &lt;span data-huuid=&quot;6847076873437157149&quot;&gt;&lt;span&gt;arith. logic unit&lt;/span&gt;&lt;/span&gt;" style="text;strokeColor=none;align=center;fillColor=none;html=1;verticalAlign=middle;whiteSpace=wrap;rounded=0;" parent="1" vertex="1">
          <mxGeometry x="625" y="2243" width="108" height="23" as="geometry" />
        </mxCell>
        <mxCell id="xfxsIgeY6kW6B-Hptfqs-279" value="controller" style="text;strokeColor=none;align=center;fillColor=none;html=1;verticalAlign=middle;whiteSpace=wrap;rounded=0;" parent="1" vertex="1">
          <mxGeometry x="633" y="2261" width="50" height="23" as="geometry" />
        </mxCell>
        <mxCell id="xfxsIgeY6kW6B-Hptfqs-284" style="edgeStyle=orthogonalEdgeStyle;rounded=0;orthogonalLoop=1;jettySize=auto;html=1;entryX=1.067;entryY=0.554;entryDx=0;entryDy=0;entryPerimeter=0;strokeColor=none;" parent="1" source="xfxsIgeY6kW6B-Hptfqs-252" target="xfxsIgeY6kW6B-Hptfqs-267" edge="1">
          <mxGeometry relative="1" as="geometry">
            <Array as="points">
              <mxPoint x="537.5" y="2254" />
            </Array>
          </mxGeometry>
        </mxCell>
        <mxCell id="xfxsIgeY6kW6B-Hptfqs-286" value="" style="endArrow=none;html=1;rounded=0;fillColor=#e51400;strokeColor=#B20000;" parent="1" source="xfxsIgeY6kW6B-Hptfqs-267" edge="1">
          <mxGeometry width="50" height="50" relative="1" as="geometry">
            <mxPoint x="452.5" y="2244" as="sourcePoint" />
            <mxPoint x="538.5" y="2135" as="targetPoint" />
            <Array as="points">
              <mxPoint x="537.5" y="2254" />
            </Array>
          </mxGeometry>
        </mxCell>
        <mxCell id="iXs-68Qg5wSXXJZjbfNh-1" value="" style="endArrow=classic;html=1;rounded=0;" parent="1" edge="1">
          <mxGeometry width="50" height="50" relative="1" as="geometry">
            <mxPoint x="790" y="320" as="sourcePoint" />
            <mxPoint x="840" y="320" as="targetPoint" />
          </mxGeometry>
        </mxCell>
        <mxCell id="iXs-68Qg5wSXXJZjbfNh-3" style="edgeStyle=orthogonalEdgeStyle;rounded=0;orthogonalLoop=1;jettySize=auto;html=1;" parent="1" source="iXs-68Qg5wSXXJZjbfNh-2" edge="1">
          <mxGeometry relative="1" as="geometry">
            <mxPoint x="490" y="3060" as="targetPoint" />
          </mxGeometry>
        </mxCell>
        <mxCell id="iXs-68Qg5wSXXJZjbfNh-4" style="edgeStyle=orthogonalEdgeStyle;rounded=0;orthogonalLoop=1;jettySize=auto;html=1;" parent="1" source="iXs-68Qg5wSXXJZjbfNh-2" edge="1">
          <mxGeometry relative="1" as="geometry">
            <mxPoint x="417.0000000000001" y="3130" as="targetPoint" />
          </mxGeometry>
        </mxCell>
        <mxCell id="iXs-68Qg5wSXXJZjbfNh-2" value="PE" style="rounded=0;whiteSpace=wrap;html=1;fillColor=#fff2cc;strokeColor=#d6b656;" parent="1" vertex="1">
          <mxGeometry x="387" y="3030" width="60" height="60" as="geometry" />
        </mxCell>
        <mxCell id="iXs-68Qg5wSXXJZjbfNh-5" style="edgeStyle=orthogonalEdgeStyle;rounded=0;orthogonalLoop=1;jettySize=auto;html=1;" parent="1" source="iXs-68Qg5wSXXJZjbfNh-7" edge="1">
          <mxGeometry relative="1" as="geometry">
            <mxPoint x="593" y="3060" as="targetPoint" />
          </mxGeometry>
        </mxCell>
        <mxCell id="iXs-68Qg5wSXXJZjbfNh-6" style="edgeStyle=orthogonalEdgeStyle;rounded=0;orthogonalLoop=1;jettySize=auto;html=1;" parent="1" source="iXs-68Qg5wSXXJZjbfNh-7" edge="1">
          <mxGeometry relative="1" as="geometry">
            <mxPoint x="520.0000000000001" y="3130" as="targetPoint" />
          </mxGeometry>
        </mxCell>
        <mxCell id="iXs-68Qg5wSXXJZjbfNh-7" value="PE" style="rounded=0;whiteSpace=wrap;html=1;fillColor=#fff2cc;strokeColor=#d6b656;" parent="1" vertex="1">
          <mxGeometry x="490" y="3030" width="60" height="60" as="geometry" />
        </mxCell>
        <mxCell id="iXs-68Qg5wSXXJZjbfNh-8" style="edgeStyle=orthogonalEdgeStyle;rounded=0;orthogonalLoop=1;jettySize=auto;html=1;" parent="1" source="iXs-68Qg5wSXXJZjbfNh-10" edge="1">
          <mxGeometry relative="1" as="geometry">
            <mxPoint x="697.5" y="3060" as="targetPoint" />
          </mxGeometry>
        </mxCell>
        <mxCell id="iXs-68Qg5wSXXJZjbfNh-9" style="edgeStyle=orthogonalEdgeStyle;rounded=0;orthogonalLoop=1;jettySize=auto;html=1;" parent="1" source="iXs-68Qg5wSXXJZjbfNh-10" edge="1">
          <mxGeometry relative="1" as="geometry">
            <mxPoint x="624.5000000000001" y="3130" as="targetPoint" />
          </mxGeometry>
        </mxCell>
        <mxCell id="iXs-68Qg5wSXXJZjbfNh-10" value="PE" style="rounded=0;whiteSpace=wrap;html=1;fillColor=#fff2cc;strokeColor=#d6b656;" parent="1" vertex="1">
          <mxGeometry x="594.5" y="3030" width="60" height="60" as="geometry" />
        </mxCell>
        <mxCell id="iXs-68Qg5wSXXJZjbfNh-11" style="edgeStyle=orthogonalEdgeStyle;rounded=0;orthogonalLoop=1;jettySize=auto;html=1;" parent="1" source="iXs-68Qg5wSXXJZjbfNh-13" edge="1">
          <mxGeometry relative="1" as="geometry">
            <mxPoint x="820" y="3060" as="targetPoint" />
          </mxGeometry>
        </mxCell>
        <mxCell id="iXs-68Qg5wSXXJZjbfNh-12" style="edgeStyle=orthogonalEdgeStyle;rounded=0;orthogonalLoop=1;jettySize=auto;html=1;" parent="1" source="iXs-68Qg5wSXXJZjbfNh-13" edge="1">
          <mxGeometry relative="1" as="geometry">
            <mxPoint x="729.0000000000001" y="3130" as="targetPoint" />
          </mxGeometry>
        </mxCell>
        <mxCell id="iXs-68Qg5wSXXJZjbfNh-13" value="PE" style="rounded=0;whiteSpace=wrap;html=1;fillColor=#fff2cc;strokeColor=#d6b656;" parent="1" vertex="1">
          <mxGeometry x="699" y="3030" width="60" height="60" as="geometry" />
        </mxCell>
        <mxCell id="iXs-68Qg5wSXXJZjbfNh-14" style="edgeStyle=orthogonalEdgeStyle;rounded=0;orthogonalLoop=1;jettySize=auto;html=1;" parent="1" source="iXs-68Qg5wSXXJZjbfNh-16" edge="1">
          <mxGeometry relative="1" as="geometry">
            <mxPoint x="490" y="3160" as="targetPoint" />
          </mxGeometry>
        </mxCell>
        <mxCell id="iXs-68Qg5wSXXJZjbfNh-15" style="edgeStyle=orthogonalEdgeStyle;rounded=0;orthogonalLoop=1;jettySize=auto;html=1;" parent="1" source="iXs-68Qg5wSXXJZjbfNh-16" edge="1">
          <mxGeometry relative="1" as="geometry">
            <mxPoint x="417.0000000000001" y="3230" as="targetPoint" />
          </mxGeometry>
        </mxCell>
        <mxCell id="iXs-68Qg5wSXXJZjbfNh-16" value="PE" style="rounded=0;whiteSpace=wrap;html=1;fillColor=#fff2cc;strokeColor=#d6b656;" parent="1" vertex="1">
          <mxGeometry x="387" y="3130" width="60" height="60" as="geometry" />
        </mxCell>
        <mxCell id="iXs-68Qg5wSXXJZjbfNh-17" style="edgeStyle=orthogonalEdgeStyle;rounded=0;orthogonalLoop=1;jettySize=auto;html=1;" parent="1" source="iXs-68Qg5wSXXJZjbfNh-19" edge="1">
          <mxGeometry relative="1" as="geometry">
            <mxPoint x="593" y="3160" as="targetPoint" />
          </mxGeometry>
        </mxCell>
        <mxCell id="iXs-68Qg5wSXXJZjbfNh-18" style="edgeStyle=orthogonalEdgeStyle;rounded=0;orthogonalLoop=1;jettySize=auto;html=1;" parent="1" source="iXs-68Qg5wSXXJZjbfNh-19" edge="1">
          <mxGeometry relative="1" as="geometry">
            <mxPoint x="520.0000000000001" y="3230" as="targetPoint" />
          </mxGeometry>
        </mxCell>
        <mxCell id="iXs-68Qg5wSXXJZjbfNh-19" value="PE" style="rounded=0;whiteSpace=wrap;html=1;fillColor=#fff2cc;strokeColor=#d6b656;" parent="1" vertex="1">
          <mxGeometry x="490" y="3130" width="60" height="60" as="geometry" />
        </mxCell>
        <mxCell id="iXs-68Qg5wSXXJZjbfNh-20" style="edgeStyle=orthogonalEdgeStyle;rounded=0;orthogonalLoop=1;jettySize=auto;html=1;" parent="1" source="iXs-68Qg5wSXXJZjbfNh-22" edge="1">
          <mxGeometry relative="1" as="geometry">
            <mxPoint x="697.5" y="3160" as="targetPoint" />
          </mxGeometry>
        </mxCell>
        <mxCell id="iXs-68Qg5wSXXJZjbfNh-21" style="edgeStyle=orthogonalEdgeStyle;rounded=0;orthogonalLoop=1;jettySize=auto;html=1;" parent="1" source="iXs-68Qg5wSXXJZjbfNh-22" edge="1">
          <mxGeometry relative="1" as="geometry">
            <mxPoint x="624.5000000000001" y="3230" as="targetPoint" />
          </mxGeometry>
        </mxCell>
        <mxCell id="iXs-68Qg5wSXXJZjbfNh-22" value="PE" style="rounded=0;whiteSpace=wrap;html=1;fillColor=#fff2cc;strokeColor=#d6b656;" parent="1" vertex="1">
          <mxGeometry x="594.5" y="3130" width="60" height="60" as="geometry" />
        </mxCell>
        <mxCell id="iXs-68Qg5wSXXJZjbfNh-23" style="edgeStyle=orthogonalEdgeStyle;rounded=0;orthogonalLoop=1;jettySize=auto;html=1;" parent="1" source="iXs-68Qg5wSXXJZjbfNh-25" edge="1">
          <mxGeometry relative="1" as="geometry">
            <mxPoint x="820" y="3160" as="targetPoint" />
          </mxGeometry>
        </mxCell>
        <mxCell id="iXs-68Qg5wSXXJZjbfNh-24" style="edgeStyle=orthogonalEdgeStyle;rounded=0;orthogonalLoop=1;jettySize=auto;html=1;" parent="1" source="iXs-68Qg5wSXXJZjbfNh-25" edge="1">
          <mxGeometry relative="1" as="geometry">
            <mxPoint x="729.0000000000001" y="3230" as="targetPoint" />
          </mxGeometry>
        </mxCell>
        <mxCell id="iXs-68Qg5wSXXJZjbfNh-25" value="PE" style="rounded=0;whiteSpace=wrap;html=1;fillColor=#fff2cc;strokeColor=#d6b656;" parent="1" vertex="1">
          <mxGeometry x="699" y="3130" width="60" height="60" as="geometry" />
        </mxCell>
        <mxCell id="iXs-68Qg5wSXXJZjbfNh-26" style="edgeStyle=orthogonalEdgeStyle;rounded=0;orthogonalLoop=1;jettySize=auto;html=1;" parent="1" source="iXs-68Qg5wSXXJZjbfNh-28" edge="1">
          <mxGeometry relative="1" as="geometry">
            <mxPoint x="490" y="3260" as="targetPoint" />
          </mxGeometry>
        </mxCell>
        <mxCell id="iXs-68Qg5wSXXJZjbfNh-27" style="edgeStyle=orthogonalEdgeStyle;rounded=0;orthogonalLoop=1;jettySize=auto;html=1;" parent="1" source="iXs-68Qg5wSXXJZjbfNh-28" edge="1">
          <mxGeometry relative="1" as="geometry">
            <mxPoint x="417.0000000000001" y="3330" as="targetPoint" />
          </mxGeometry>
        </mxCell>
        <mxCell id="iXs-68Qg5wSXXJZjbfNh-28" value="PE" style="rounded=0;whiteSpace=wrap;html=1;fillColor=#fff2cc;strokeColor=#d6b656;" parent="1" vertex="1">
          <mxGeometry x="387" y="3230" width="60" height="60" as="geometry" />
        </mxCell>
        <mxCell id="iXs-68Qg5wSXXJZjbfNh-29" style="edgeStyle=orthogonalEdgeStyle;rounded=0;orthogonalLoop=1;jettySize=auto;html=1;" parent="1" source="iXs-68Qg5wSXXJZjbfNh-31" edge="1">
          <mxGeometry relative="1" as="geometry">
            <mxPoint x="593" y="3260" as="targetPoint" />
          </mxGeometry>
        </mxCell>
        <mxCell id="iXs-68Qg5wSXXJZjbfNh-30" style="edgeStyle=orthogonalEdgeStyle;rounded=0;orthogonalLoop=1;jettySize=auto;html=1;" parent="1" source="iXs-68Qg5wSXXJZjbfNh-31" edge="1">
          <mxGeometry relative="1" as="geometry">
            <mxPoint x="520.0000000000001" y="3330" as="targetPoint" />
          </mxGeometry>
        </mxCell>
        <mxCell id="iXs-68Qg5wSXXJZjbfNh-31" value="PE" style="rounded=0;whiteSpace=wrap;html=1;fillColor=#fff2cc;strokeColor=#d6b656;" parent="1" vertex="1">
          <mxGeometry x="490" y="3230" width="60" height="60" as="geometry" />
        </mxCell>
        <mxCell id="iXs-68Qg5wSXXJZjbfNh-32" style="edgeStyle=orthogonalEdgeStyle;rounded=0;orthogonalLoop=1;jettySize=auto;html=1;" parent="1" source="iXs-68Qg5wSXXJZjbfNh-34" edge="1">
          <mxGeometry relative="1" as="geometry">
            <mxPoint x="697.5" y="3260" as="targetPoint" />
          </mxGeometry>
        </mxCell>
        <mxCell id="iXs-68Qg5wSXXJZjbfNh-33" style="edgeStyle=orthogonalEdgeStyle;rounded=0;orthogonalLoop=1;jettySize=auto;html=1;" parent="1" source="iXs-68Qg5wSXXJZjbfNh-34" edge="1">
          <mxGeometry relative="1" as="geometry">
            <mxPoint x="624.5000000000001" y="3330" as="targetPoint" />
          </mxGeometry>
        </mxCell>
        <mxCell id="iXs-68Qg5wSXXJZjbfNh-34" value="PE" style="rounded=0;whiteSpace=wrap;html=1;fillColor=#fff2cc;strokeColor=#d6b656;" parent="1" vertex="1">
          <mxGeometry x="594.5" y="3230" width="60" height="60" as="geometry" />
        </mxCell>
        <mxCell id="iXs-68Qg5wSXXJZjbfNh-35" style="edgeStyle=orthogonalEdgeStyle;rounded=0;orthogonalLoop=1;jettySize=auto;html=1;" parent="1" source="iXs-68Qg5wSXXJZjbfNh-37" edge="1">
          <mxGeometry relative="1" as="geometry">
            <mxPoint x="820" y="3260" as="targetPoint" />
          </mxGeometry>
        </mxCell>
        <mxCell id="iXs-68Qg5wSXXJZjbfNh-36" style="edgeStyle=orthogonalEdgeStyle;rounded=0;orthogonalLoop=1;jettySize=auto;html=1;" parent="1" source="iXs-68Qg5wSXXJZjbfNh-37" edge="1">
          <mxGeometry relative="1" as="geometry">
            <mxPoint x="729.0000000000001" y="3330" as="targetPoint" />
          </mxGeometry>
        </mxCell>
        <mxCell id="iXs-68Qg5wSXXJZjbfNh-37" value="PE" style="rounded=0;whiteSpace=wrap;html=1;fillColor=#fff2cc;strokeColor=#d6b656;" parent="1" vertex="1">
          <mxGeometry x="699" y="3230" width="60" height="60" as="geometry" />
        </mxCell>
        <mxCell id="iXs-68Qg5wSXXJZjbfNh-38" style="edgeStyle=orthogonalEdgeStyle;rounded=0;orthogonalLoop=1;jettySize=auto;html=1;" parent="1" source="iXs-68Qg5wSXXJZjbfNh-40" edge="1">
          <mxGeometry relative="1" as="geometry">
            <mxPoint x="490" y="3360" as="targetPoint" />
          </mxGeometry>
        </mxCell>
        <mxCell id="iXs-68Qg5wSXXJZjbfNh-40" value="PE" style="rounded=0;whiteSpace=wrap;html=1;fillColor=#fff2cc;strokeColor=#d6b656;" parent="1" vertex="1">
          <mxGeometry x="387" y="3330" width="60" height="60" as="geometry" />
        </mxCell>
        <mxCell id="iXs-68Qg5wSXXJZjbfNh-41" style="edgeStyle=orthogonalEdgeStyle;rounded=0;orthogonalLoop=1;jettySize=auto;html=1;" parent="1" source="iXs-68Qg5wSXXJZjbfNh-43" edge="1">
          <mxGeometry relative="1" as="geometry">
            <mxPoint x="593" y="3360" as="targetPoint" />
          </mxGeometry>
        </mxCell>
        <mxCell id="iXs-68Qg5wSXXJZjbfNh-43" value="PE" style="rounded=0;whiteSpace=wrap;html=1;fillColor=#fff2cc;strokeColor=#d6b656;" parent="1" vertex="1">
          <mxGeometry x="490" y="3330" width="60" height="60" as="geometry" />
        </mxCell>
        <mxCell id="iXs-68Qg5wSXXJZjbfNh-44" style="edgeStyle=orthogonalEdgeStyle;rounded=0;orthogonalLoop=1;jettySize=auto;html=1;" parent="1" source="iXs-68Qg5wSXXJZjbfNh-46" edge="1">
          <mxGeometry relative="1" as="geometry">
            <mxPoint x="697.5" y="3360" as="targetPoint" />
          </mxGeometry>
        </mxCell>
        <mxCell id="iXs-68Qg5wSXXJZjbfNh-46" value="PE" style="rounded=0;whiteSpace=wrap;html=1;fillColor=#fff2cc;strokeColor=#d6b656;" parent="1" vertex="1">
          <mxGeometry x="594.5" y="3330" width="60" height="60" as="geometry" />
        </mxCell>
        <mxCell id="iXs-68Qg5wSXXJZjbfNh-47" style="edgeStyle=orthogonalEdgeStyle;rounded=0;orthogonalLoop=1;jettySize=auto;html=1;" parent="1" source="iXs-68Qg5wSXXJZjbfNh-49" edge="1">
          <mxGeometry relative="1" as="geometry">
            <mxPoint x="820" y="3360" as="targetPoint" />
          </mxGeometry>
        </mxCell>
        <mxCell id="iXs-68Qg5wSXXJZjbfNh-49" value="PE" style="rounded=0;whiteSpace=wrap;html=1;fillColor=#fff2cc;strokeColor=#d6b656;" parent="1" vertex="1">
          <mxGeometry x="699" y="3330" width="60" height="60" as="geometry" />
        </mxCell>
        <mxCell id="iXs-68Qg5wSXXJZjbfNh-54" style="edgeStyle=orthogonalEdgeStyle;rounded=0;orthogonalLoop=1;jettySize=auto;html=1;" parent="1" edge="1">
          <mxGeometry relative="1" as="geometry">
            <mxPoint x="387" y="3059.41" as="targetPoint" />
            <mxPoint x="326" y="3059.41" as="sourcePoint" />
          </mxGeometry>
        </mxCell>
        <mxCell id="iXs-68Qg5wSXXJZjbfNh-55" style="edgeStyle=orthogonalEdgeStyle;rounded=0;orthogonalLoop=1;jettySize=auto;html=1;" parent="1" edge="1">
          <mxGeometry relative="1" as="geometry">
            <mxPoint x="384" y="3158.41" as="targetPoint" />
            <mxPoint x="323" y="3158.41" as="sourcePoint" />
          </mxGeometry>
        </mxCell>
        <mxCell id="iXs-68Qg5wSXXJZjbfNh-56" style="edgeStyle=orthogonalEdgeStyle;rounded=0;orthogonalLoop=1;jettySize=auto;html=1;" parent="1" edge="1">
          <mxGeometry relative="1" as="geometry">
            <mxPoint x="385" y="3259.41" as="targetPoint" />
            <mxPoint x="324" y="3259.41" as="sourcePoint" />
          </mxGeometry>
        </mxCell>
        <mxCell id="iXs-68Qg5wSXXJZjbfNh-57" style="edgeStyle=orthogonalEdgeStyle;rounded=0;orthogonalLoop=1;jettySize=auto;html=1;" parent="1" edge="1">
          <mxGeometry relative="1" as="geometry">
            <mxPoint x="384" y="3358.41" as="targetPoint" />
            <mxPoint x="323" y="3358.41" as="sourcePoint" />
          </mxGeometry>
        </mxCell>
        <mxCell id="iXs-68Qg5wSXXJZjbfNh-59" value="" style="endArrow=classic;html=1;rounded=0;" parent="1" edge="1">
          <mxGeometry width="50" height="50" relative="1" as="geometry">
            <mxPoint x="417" y="2980" as="sourcePoint" />
            <mxPoint x="416.58" y="3030" as="targetPoint" />
          </mxGeometry>
        </mxCell>
        <mxCell id="iXs-68Qg5wSXXJZjbfNh-60" value="" style="endArrow=classic;html=1;rounded=0;" parent="1" edge="1">
          <mxGeometry width="50" height="50" relative="1" as="geometry">
            <mxPoint x="520" y="2980" as="sourcePoint" />
            <mxPoint x="519.5799999999999" y="3030" as="targetPoint" />
          </mxGeometry>
        </mxCell>
        <mxCell id="iXs-68Qg5wSXXJZjbfNh-61" value="" style="endArrow=classic;html=1;rounded=0;" parent="1" edge="1">
          <mxGeometry width="50" height="50" relative="1" as="geometry">
            <mxPoint x="627.59" y="2980" as="sourcePoint" />
            <mxPoint x="627.17" y="3030" as="targetPoint" />
          </mxGeometry>
        </mxCell>
        <mxCell id="iXs-68Qg5wSXXJZjbfNh-62" value="" style="endArrow=classic;html=1;rounded=0;" parent="1" edge="1">
          <mxGeometry width="50" height="50" relative="1" as="geometry">
            <mxPoint x="730.59" y="2980" as="sourcePoint" />
            <mxPoint x="730.17" y="3030" as="targetPoint" />
          </mxGeometry>
        </mxCell>
        <mxCell id="iXs-68Qg5wSXXJZjbfNh-63" value="&lt;div align=&quot;center&quot;&gt;WEIGHT&lt;/div&gt;&lt;div align=&quot;center&quot;&gt;BUFFER&lt;br&gt;&lt;/div&gt;" style="rounded=0;whiteSpace=wrap;html=1;align=center;fontStyle=0;verticalAlign=middle;horizontal=1;labelPosition=center;verticalLabelPosition=middle;fillColor=#dae8fc;strokeColor=#6c8ebf;" parent="1" vertex="1">
          <mxGeometry x="378.5" y="2950" width="371.5" height="33" as="geometry" />
        </mxCell>
        <mxCell id="iXs-68Qg5wSXXJZjbfNh-64" value="&lt;div&gt;INPUT&lt;/div&gt;&lt;div&gt;BUFFER&lt;/div&gt;&lt;div&gt;&lt;br&gt;&lt;/div&gt;" style="rounded=0;whiteSpace=wrap;html=1;fillColor=#dae8fc;strokeColor=#6c8ebf;" parent="1" vertex="1">
          <mxGeometry x="280" y="3019" width="50" height="371" as="geometry" />
        </mxCell>
        <mxCell id="iXs-68Qg5wSXXJZjbfNh-69" value="&lt;span style=&quot;font-size: 8px;&quot;&gt;weight&lt;/span&gt;" style="rounded=0;whiteSpace=wrap;html=1;fillColor=#dae8fc;strokeColor=#6c8ebf;" parent="1" vertex="1">
          <mxGeometry x="314" y="729" width="25" height="20" as="geometry" />
        </mxCell>
        <mxCell id="iXs-68Qg5wSXXJZjbfNh-70" value="&lt;font style=&quot;font-size: 8px;&quot;&gt;weight&lt;/font&gt;" style="rounded=0;whiteSpace=wrap;html=1;fillColor=#dae8fc;strokeColor=#6c8ebf;" parent="1" vertex="1">
          <mxGeometry x="333.5" y="1712" width="27" height="20" as="geometry" />
        </mxCell>
        <mxCell id="iXs-68Qg5wSXXJZjbfNh-71" value="&lt;font style=&quot;font-size: 8px;&quot;&gt;weight&lt;/font&gt;" style="rounded=0;whiteSpace=wrap;html=1;fillColor=#dae8fc;strokeColor=#6c8ebf;" parent="1" vertex="1">
          <mxGeometry x="336" y="2086" width="27" height="20" as="geometry" />
        </mxCell>
        <mxCell id="iXs-68Qg5wSXXJZjbfNh-74" value="" style="endArrow=classic;html=1;rounded=0;entryX=0;entryY=0.5;entryDx=0;entryDy=0;" parent="1" edge="1">
          <mxGeometry width="50" height="50" relative="1" as="geometry">
            <mxPoint x="362" y="1747.5" as="sourcePoint" />
            <mxPoint x="397" y="1737.5" as="targetPoint" />
            <Array as="points">
              <mxPoint x="371" y="1747.5" />
              <mxPoint x="371" y="1737.5" />
            </Array>
          </mxGeometry>
        </mxCell>
        <mxCell id="iXs-68Qg5wSXXJZjbfNh-75" value="&lt;font style=&quot;font-size: 9px;&quot;&gt;alpha&lt;/font&gt;" style="rounded=0;whiteSpace=wrap;html=1;fillColor=#dae8fc;strokeColor=#6c8ebf;" parent="1" vertex="1">
          <mxGeometry x="333" y="1738" width="29" height="20" as="geometry" />
        </mxCell>
        <mxCell id="iXs-68Qg5wSXXJZjbfNh-76" value="" style="endArrow=classic;html=1;rounded=0;entryX=0;entryY=0.5;entryDx=0;entryDy=0;fillColor=#e51400;strokeColor=#B20000;" parent="1" edge="1">
          <mxGeometry width="50" height="50" relative="1" as="geometry">
            <mxPoint x="364" y="2121.5" as="sourcePoint" />
            <mxPoint x="399" y="2111.5" as="targetPoint" />
            <Array as="points">
              <mxPoint x="373" y="2121.5" />
              <mxPoint x="373" y="2111.5" />
            </Array>
          </mxGeometry>
        </mxCell>
        <mxCell id="iXs-68Qg5wSXXJZjbfNh-77" value="&lt;font style=&quot;font-size: 9px;&quot;&gt;alpha&lt;/font&gt;" style="rounded=0;whiteSpace=wrap;html=1;fillColor=#dae8fc;strokeColor=#6c8ebf;" parent="1" vertex="1">
          <mxGeometry x="335" y="2112" width="29" height="20" as="geometry" />
        </mxCell>
        <mxCell id="iXs-68Qg5wSXXJZjbfNh-84" value="" style="endArrow=classic;html=1;rounded=0;strokeWidth=4;targetPerimeterSpacing=0;fillColor=#fad9d5;strokeColor=#FFCCCC;" parent="1" edge="1">
          <mxGeometry width="50" height="50" relative="1" as="geometry">
            <mxPoint x="280" y="3000" as="sourcePoint" />
            <mxPoint x="328" y="3000" as="targetPoint" />
          </mxGeometry>
        </mxCell>
        <mxCell id="iXs-68Qg5wSXXJZjbfNh-86" value="" style="endArrow=classic;html=1;rounded=0;strokeWidth=4;targetPerimeterSpacing=0;fillColor=#fad7ac;strokeColor=#FFCC99;" parent="1" edge="1">
          <mxGeometry width="50" height="50" relative="1" as="geometry">
            <mxPoint x="364" y="2950" as="sourcePoint" />
            <mxPoint x="364" y="2988" as="targetPoint" />
          </mxGeometry>
        </mxCell>
        <mxCell id="iXs-68Qg5wSXXJZjbfNh-87" value="weight&amp;nbsp;&lt;span style=&quot;background-color: transparent; color: light-dark(rgb(0, 0, 0), rgb(255, 255, 255));&quot;&gt;flow&lt;/span&gt;&lt;div&gt;direction&lt;/div&gt;" style="text;strokeColor=none;align=center;fillColor=none;html=1;verticalAlign=middle;whiteSpace=wrap;rounded=0;" parent="1" vertex="1">
          <mxGeometry x="328" y="2910" width="72" height="30" as="geometry" />
        </mxCell>
        <mxCell id="iXs-68Qg5wSXXJZjbfNh-88" value="input&amp;nbsp;&lt;span style=&quot;background-color: transparent; color: light-dark(rgb(0, 0, 0), rgb(255, 255, 255));&quot;&gt;flow&lt;/span&gt;&lt;div&gt;direction&lt;/div&gt;" style="text;strokeColor=none;align=center;fillColor=none;html=1;verticalAlign=middle;whiteSpace=wrap;rounded=0;" parent="1" vertex="1">
          <mxGeometry x="203" y="2983" width="88" height="30" as="geometry" />
        </mxCell>
        <mxCell id="iXs-68Qg5wSXXJZjbfNh-95" value="&lt;font style=&quot;font-size: 9px;&quot;&gt;input&lt;/font&gt;" style="rounded=0;whiteSpace=wrap;html=1;fillColor=#dae8fc;strokeColor=#6c8ebf;" parent="1" vertex="1">
          <mxGeometry x="314" y="753" width="25" height="20" as="geometry" />
        </mxCell>
        <mxCell id="iXs-68Qg5wSXXJZjbfNh-100" value="" style="rounded=0;whiteSpace=wrap;html=1;" parent="1" vertex="1">
          <mxGeometry x="170" y="1020" width="300" height="240" as="geometry" />
        </mxCell>
        <mxCell id="iXs-68Qg5wSXXJZjbfNh-101" value="MAC" style="rounded=0;whiteSpace=wrap;html=1;fillColor=#fff2cc;strokeColor=#d6b656;" parent="1" vertex="1">
          <mxGeometry x="330" y="1083" width="60" height="60" as="geometry" />
        </mxCell>
        <mxCell id="iXs-68Qg5wSXXJZjbfNh-102" value="" style="endArrow=classic;html=1;rounded=0;entryX=0;entryY=0.5;entryDx=0;entryDy=0;fillColor=#e51400;strokeColor=#B20000;" parent="1" edge="1">
          <mxGeometry width="50" height="50" relative="1" as="geometry">
            <mxPoint x="90" y="1087" as="sourcePoint" />
            <mxPoint x="296" y="1086.5" as="targetPoint" />
          </mxGeometry>
        </mxCell>
        <mxCell id="iXs-68Qg5wSXXJZjbfNh-103" value="weight" style="edgeLabel;html=1;align=center;verticalAlign=middle;resizable=0;points=[];" parent="iXs-68Qg5wSXXJZjbfNh-102" vertex="1" connectable="0">
          <mxGeometry x="-0.2784" y="-1" relative="1" as="geometry">
            <mxPoint x="-25" y="-1" as="offset" />
          </mxGeometry>
        </mxCell>
        <mxCell id="iXs-68Qg5wSXXJZjbfNh-104" value="" style="shape=trapezoid;perimeter=trapezoidPerimeter;whiteSpace=wrap;html=1;fixedSize=1;size=7.5;rotation=90;" parent="1" vertex="1">
          <mxGeometry x="289" y="1086.5" width="30" height="15" as="geometry" />
        </mxCell>
        <mxCell id="iXs-68Qg5wSXXJZjbfNh-105" value="FF" style="rounded=0;whiteSpace=wrap;html=1;fillColor=#dae8fc;strokeColor=#6c8ebf;" parent="1" vertex="1">
          <mxGeometry x="420" y="1093" width="30" height="30" as="geometry" />
        </mxCell>
        <mxCell id="iXs-68Qg5wSXXJZjbfNh-106" value="" style="endArrow=classic;html=1;rounded=0;entryX=0;entryY=0.5;entryDx=0;entryDy=0;" parent="1" edge="1">
          <mxGeometry width="50" height="50" relative="1" as="geometry">
            <mxPoint x="250" y="1111" as="sourcePoint" />
            <mxPoint x="296" y="1101" as="targetPoint" />
            <Array as="points">
              <mxPoint x="270" y="1111" />
              <mxPoint x="270" y="1101" />
            </Array>
          </mxGeometry>
        </mxCell>
        <mxCell id="iXs-68Qg5wSXXJZjbfNh-107" value="" style="endArrow=classic;html=1;rounded=0;fillColor=#e51400;strokeColor=#B20000;" parent="1" edge="1">
          <mxGeometry width="50" height="50" relative="1" as="geometry">
            <mxPoint x="312" y="1093.75" as="sourcePoint" />
            <mxPoint x="329" y="1094" as="targetPoint" />
          </mxGeometry>
        </mxCell>
        <mxCell id="iXs-68Qg5wSXXJZjbfNh-108" value="" style="endArrow=classic;html=1;rounded=0;entryX=0;entryY=0.5;entryDx=0;entryDy=0;" parent="1" target="iXs-68Qg5wSXXJZjbfNh-105" edge="1">
          <mxGeometry width="50" height="50" relative="1" as="geometry">
            <mxPoint x="390" y="1107.8600000000001" as="sourcePoint" />
            <mxPoint x="407" y="1108.1100000000001" as="targetPoint" />
          </mxGeometry>
        </mxCell>
        <mxCell id="iXs-68Qg5wSXXJZjbfNh-109" value="" style="endArrow=classic;html=1;rounded=0;entryX=0;entryY=0.5;entryDx=0;entryDy=0;fillColor=#e51400;strokeColor=#B20000;" parent="1" edge="1">
          <mxGeometry width="50" height="50" relative="1" as="geometry">
            <mxPoint x="90" y="1126" as="sourcePoint" />
            <mxPoint x="296" y="1124.25" as="targetPoint" />
          </mxGeometry>
        </mxCell>
        <mxCell id="iXs-68Qg5wSXXJZjbfNh-110" value="input" style="edgeLabel;html=1;align=center;verticalAlign=middle;resizable=0;points=[];" parent="iXs-68Qg5wSXXJZjbfNh-109" vertex="1" connectable="0">
          <mxGeometry x="-0.2784" y="-1" relative="1" as="geometry">
            <mxPoint x="-25" y="-1" as="offset" />
          </mxGeometry>
        </mxCell>
        <mxCell id="iXs-68Qg5wSXXJZjbfNh-111" value="" style="shape=trapezoid;perimeter=trapezoidPerimeter;whiteSpace=wrap;html=1;fixedSize=1;size=7.5;rotation=90;" parent="1" vertex="1">
          <mxGeometry x="289" y="1123.5" width="30" height="15" as="geometry" />
        </mxCell>
        <mxCell id="iXs-68Qg5wSXXJZjbfNh-112" value="" style="endArrow=classic;html=1;rounded=0;fillColor=#e51400;strokeColor=#B20000;" parent="1" edge="1">
          <mxGeometry width="50" height="50" relative="1" as="geometry">
            <mxPoint x="312" y="1130.75" as="sourcePoint" />
            <mxPoint x="329" y="1131" as="targetPoint" />
          </mxGeometry>
        </mxCell>
        <mxCell id="iXs-68Qg5wSXXJZjbfNh-113" value="" style="endArrow=classic;html=1;rounded=0;entryX=0.5;entryY=1.033;entryDx=0;entryDy=0;entryPerimeter=0;fillColor=#e51400;strokeColor=#B20000;" parent="1" target="iXs-68Qg5wSXXJZjbfNh-101" edge="1">
          <mxGeometry width="50" height="50" relative="1" as="geometry">
            <mxPoint x="360" y="1163" as="sourcePoint" />
            <mxPoint x="360" y="1153" as="targetPoint" />
          </mxGeometry>
        </mxCell>
        <mxCell id="iXs-68Qg5wSXXJZjbfNh-114" value="" style="shape=trapezoid;perimeter=trapezoidPerimeter;whiteSpace=wrap;html=1;fixedSize=1;size=7.5;rotation=0;" parent="1" vertex="1">
          <mxGeometry x="345" y="1163" width="30" height="15" as="geometry" />
        </mxCell>
        <mxCell id="iXs-68Qg5wSXXJZjbfNh-115" value="" style="endArrow=classic;html=1;rounded=0;entryX=0.25;entryY=1;entryDx=0;entryDy=0;exitX=1;exitY=0.5;exitDx=0;exitDy=0;" parent="1" source="iXs-68Qg5wSXXJZjbfNh-121" edge="1">
          <mxGeometry width="50" height="50" relative="1" as="geometry">
            <mxPoint x="340" y="1203" as="sourcePoint" />
            <mxPoint x="351.5" y="1178" as="targetPoint" />
            <Array as="points">
              <mxPoint x="351" y="1203" />
            </Array>
          </mxGeometry>
        </mxCell>
        <mxCell id="iXs-68Qg5wSXXJZjbfNh-116" value="" style="endArrow=classic;html=1;rounded=0;exitX=0.5;exitY=1;exitDx=0;exitDy=0;entryX=0.75;entryY=1;entryDx=0;entryDy=0;fillColor=#e51400;strokeColor=#B20000;" parent="1" source="iXs-68Qg5wSXXJZjbfNh-105" target="iXs-68Qg5wSXXJZjbfNh-114" edge="1">
          <mxGeometry width="50" height="50" relative="1" as="geometry">
            <mxPoint x="340" y="1223" as="sourcePoint" />
            <mxPoint x="390" y="1173" as="targetPoint" />
            <Array as="points">
              <mxPoint x="436" y="1243" />
              <mxPoint x="367" y="1243" />
            </Array>
          </mxGeometry>
        </mxCell>
        <mxCell id="iXs-68Qg5wSXXJZjbfNh-117" value="&lt;div&gt;partial&lt;/div&gt;&lt;div&gt;sum&lt;br&gt;&lt;/div&gt;" style="edgeLabel;html=1;align=center;verticalAlign=middle;resizable=0;points=[];" parent="iXs-68Qg5wSXXJZjbfNh-116" vertex="1" connectable="0">
          <mxGeometry x="0.2138" y="1" relative="1" as="geometry">
            <mxPoint x="-31" y="-31" as="offset" />
          </mxGeometry>
        </mxCell>
        <mxCell id="iXs-68Qg5wSXXJZjbfNh-118" style="edgeStyle=orthogonalEdgeStyle;rounded=0;orthogonalLoop=1;jettySize=auto;html=1;entryX=0.75;entryY=1;entryDx=0;entryDy=0;" parent="1" source="iXs-68Qg5wSXXJZjbfNh-120" target="iXs-68Qg5wSXXJZjbfNh-111" edge="1">
          <mxGeometry relative="1" as="geometry">
            <mxPoint x="190" y="1153" as="targetPoint" />
            <Array as="points">
              <mxPoint x="190" y="1243" />
              <mxPoint x="190" y="1139" />
            </Array>
          </mxGeometry>
        </mxCell>
        <mxCell id="iXs-68Qg5wSXXJZjbfNh-119" value="conv result" style="edgeLabel;html=1;align=center;verticalAlign=middle;resizable=0;points=[];" parent="iXs-68Qg5wSXXJZjbfNh-118" vertex="1" connectable="0">
          <mxGeometry x="0.7928" y="-1" relative="1" as="geometry">
            <mxPoint x="-28" y="-2" as="offset" />
          </mxGeometry>
        </mxCell>
        <mxCell id="iXs-68Qg5wSXXJZjbfNh-120" value="" style="shape=waypoint;sketch=0;fillStyle=solid;size=6;pointerEvents=1;points=[];fillColor=none;resizable=0;rotatable=0;perimeter=centerPerimeter;snapToPoint=1;" parent="1" vertex="1">
          <mxGeometry x="357" y="1233" width="20" height="20" as="geometry" />
        </mxCell>
        <mxCell id="iXs-68Qg5wSXXJZjbfNh-121" value="&lt;span style=&quot;font-family: Arial, sans-serif; text-align: left;&quot;&gt;&lt;font style=&quot;color: rgb(0, 0, 0);&quot;&gt;β&lt;/font&gt;&lt;/span&gt;" style="rounded=0;whiteSpace=wrap;html=1;fillColor=#dae8fc;strokeColor=#6c8ebf;" parent="1" vertex="1">
          <mxGeometry x="311" y="1193" width="28" height="20" as="geometry" />
        </mxCell>
        <mxCell id="iXs-68Qg5wSXXJZjbfNh-122" value="&lt;font&gt;α&lt;/font&gt;" style="rounded=0;whiteSpace=wrap;html=1;fillColor=#dae8fc;strokeColor=#6c8ebf;" parent="1" vertex="1">
          <mxGeometry x="225" y="1099.5" width="25" height="20" as="geometry" />
        </mxCell>
        <mxCell id="iXs-68Qg5wSXXJZjbfNh-123" style="edgeStyle=orthogonalEdgeStyle;rounded=0;orthogonalLoop=1;jettySize=auto;html=1;fillColor=#e51400;strokeColor=#B20000;" parent="1" source="iXs-68Qg5wSXXJZjbfNh-125" edge="1">
          <mxGeometry relative="1" as="geometry">
            <mxPoint x="520" y="1040" as="targetPoint" />
            <Array as="points">
              <mxPoint x="271" y="1040" />
              <mxPoint x="520" y="1040" />
            </Array>
          </mxGeometry>
        </mxCell>
        <mxCell id="iXs-68Qg5wSXXJZjbfNh-124" value="weight" style="edgeLabel;html=1;align=center;verticalAlign=middle;resizable=0;points=[];" parent="iXs-68Qg5wSXXJZjbfNh-123" vertex="1" connectable="0">
          <mxGeometry x="0.4113" y="1" relative="1" as="geometry">
            <mxPoint x="58" as="offset" />
          </mxGeometry>
        </mxCell>
        <mxCell id="iXs-68Qg5wSXXJZjbfNh-125" value="" style="shape=waypoint;sketch=0;fillStyle=solid;size=6;pointerEvents=1;points=[];fillColor=none;resizable=0;rotatable=0;perimeter=centerPerimeter;snapToPoint=1;" parent="1" vertex="1">
          <mxGeometry x="261" y="1077" width="20" height="20" as="geometry" />
        </mxCell>
        <mxCell id="iXs-68Qg5wSXXJZjbfNh-126" style="edgeStyle=orthogonalEdgeStyle;rounded=0;orthogonalLoop=1;jettySize=auto;html=1;jumpStyle=arc;fillColor=#e51400;strokeColor=#B20000;" parent="1" source="iXs-68Qg5wSXXJZjbfNh-128" edge="1">
          <mxGeometry relative="1" as="geometry">
            <mxPoint x="520" y="1063" as="targetPoint" />
            <Array as="points">
              <mxPoint x="279" y="1063" />
              <mxPoint x="520" y="1063" />
            </Array>
          </mxGeometry>
        </mxCell>
        <mxCell id="iXs-68Qg5wSXXJZjbfNh-127" value="input" style="edgeLabel;html=1;align=center;verticalAlign=middle;resizable=0;points=[];" parent="iXs-68Qg5wSXXJZjbfNh-126" vertex="1" connectable="0">
          <mxGeometry x="0.626" y="-1" relative="1" as="geometry">
            <mxPoint x="27" y="-1" as="offset" />
          </mxGeometry>
        </mxCell>
        <mxCell id="iXs-68Qg5wSXXJZjbfNh-128" value="" style="shape=waypoint;sketch=0;fillStyle=solid;size=6;pointerEvents=1;points=[];fillColor=none;resizable=0;rotatable=0;perimeter=centerPerimeter;snapToPoint=1;" parent="1" vertex="1">
          <mxGeometry x="269" y="1115" width="20" height="20" as="geometry" />
        </mxCell>
        <mxCell id="iXs-68Qg5wSXXJZjbfNh-129" value="" style="endArrow=none;html=1;rounded=0;fillColor=#dae8fc;strokeColor=#A9C4EB;strokeWidth=5;" parent="1" edge="1">
          <mxGeometry width="50" height="50" relative="1" as="geometry">
            <mxPoint x="493" y="1222" as="sourcePoint" />
            <mxPoint x="523" y="1222" as="targetPoint" />
          </mxGeometry>
        </mxCell>
        <mxCell id="iXs-68Qg5wSXXJZjbfNh-130" value="" style="endArrow=none;html=1;rounded=0;fillColor=#fff2cc;strokeColor=#FFCC99;strokeWidth=5;" parent="1" edge="1">
          <mxGeometry width="50" height="50" relative="1" as="geometry">
            <mxPoint x="493" y="1242" as="sourcePoint" />
            <mxPoint x="523" y="1242" as="targetPoint" />
          </mxGeometry>
        </mxCell>
        <mxCell id="iXs-68Qg5wSXXJZjbfNh-131" value="" style="endArrow=none;html=1;rounded=0;fillColor=#f8cecc;strokeColor=#FF9999;strokeWidth=5;" parent="1" edge="1">
          <mxGeometry width="50" height="50" relative="1" as="geometry">
            <mxPoint x="493" y="1261" as="sourcePoint" />
            <mxPoint x="523" y="1261" as="targetPoint" />
          </mxGeometry>
        </mxCell>
        <mxCell id="iXs-68Qg5wSXXJZjbfNh-132" value="buffer" style="text;strokeColor=none;align=center;fillColor=none;html=1;verticalAlign=middle;whiteSpace=wrap;rounded=0;" parent="1" vertex="1">
          <mxGeometry x="523" y="1209" width="50" height="23" as="geometry" />
        </mxCell>
        <mxCell id="iXs-68Qg5wSXXJZjbfNh-133" value="nn &lt;span data-huuid=&quot;6847076873437157149&quot;&gt;&lt;span&gt;arith. logic unit&lt;/span&gt;&lt;/span&gt;" style="text;strokeColor=none;align=center;fillColor=none;html=1;verticalAlign=middle;whiteSpace=wrap;rounded=0;" parent="1" vertex="1">
          <mxGeometry x="523" y="1232" width="108" height="23" as="geometry" />
        </mxCell>
        <mxCell id="iXs-68Qg5wSXXJZjbfNh-134" value="controller" style="text;strokeColor=none;align=center;fillColor=none;html=1;verticalAlign=middle;whiteSpace=wrap;rounded=0;" parent="1" vertex="1">
          <mxGeometry x="531" y="1250" width="50" height="23" as="geometry" />
        </mxCell>
        <mxCell id="iXs-68Qg5wSXXJZjbfNh-135" value="&lt;span style=&quot;font-size: 8px;&quot;&gt;weight&lt;/span&gt;" style="rounded=0;whiteSpace=wrap;html=1;fillColor=#dae8fc;strokeColor=#6c8ebf;" parent="1" vertex="1">
          <mxGeometry x="314" y="1029" width="25" height="20" as="geometry" />
        </mxCell>
        <mxCell id="iXs-68Qg5wSXXJZjbfNh-136" value="&lt;font style=&quot;font-size: 9px;&quot;&gt;input&lt;/font&gt;" style="rounded=0;whiteSpace=wrap;html=1;fillColor=#dae8fc;strokeColor=#6c8ebf;" parent="1" vertex="1">
          <mxGeometry x="314" y="1053" width="25" height="20" as="geometry" />
        </mxCell>
        <mxCell id="iXs-68Qg5wSXXJZjbfNh-137" value="" style="rounded=0;whiteSpace=wrap;html=1;" parent="1" vertex="1">
          <mxGeometry x="169" y="1290" width="300" height="240" as="geometry" />
        </mxCell>
        <mxCell id="iXs-68Qg5wSXXJZjbfNh-138" value="MAC" style="rounded=0;whiteSpace=wrap;html=1;fillColor=#fff2cc;strokeColor=#d6b656;" parent="1" vertex="1">
          <mxGeometry x="329" y="1353" width="60" height="60" as="geometry" />
        </mxCell>
        <mxCell id="iXs-68Qg5wSXXJZjbfNh-139" value="" style="endArrow=classic;html=1;rounded=0;entryX=0;entryY=0.5;entryDx=0;entryDy=0;" parent="1" edge="1">
          <mxGeometry width="50" height="50" relative="1" as="geometry">
            <mxPoint x="89" y="1357" as="sourcePoint" />
            <mxPoint x="295" y="1356.5" as="targetPoint" />
          </mxGeometry>
        </mxCell>
        <mxCell id="iXs-68Qg5wSXXJZjbfNh-140" value="weight" style="edgeLabel;html=1;align=center;verticalAlign=middle;resizable=0;points=[];" parent="iXs-68Qg5wSXXJZjbfNh-139" vertex="1" connectable="0">
          <mxGeometry x="-0.2784" y="-1" relative="1" as="geometry">
            <mxPoint x="-25" y="-1" as="offset" />
          </mxGeometry>
        </mxCell>
        <mxCell id="iXs-68Qg5wSXXJZjbfNh-141" value="" style="shape=trapezoid;perimeter=trapezoidPerimeter;whiteSpace=wrap;html=1;fixedSize=1;size=7.5;rotation=90;" parent="1" vertex="1">
          <mxGeometry x="288" y="1356.5" width="30" height="15" as="geometry" />
        </mxCell>
        <mxCell id="iXs-68Qg5wSXXJZjbfNh-142" value="FF" style="rounded=0;whiteSpace=wrap;html=1;fillColor=#dae8fc;strokeColor=#6c8ebf;" parent="1" vertex="1">
          <mxGeometry x="419" y="1363" width="30" height="30" as="geometry" />
        </mxCell>
        <mxCell id="iXs-68Qg5wSXXJZjbfNh-143" value="" style="endArrow=classic;html=1;rounded=0;entryX=0;entryY=0.5;entryDx=0;entryDy=0;fillColor=#e51400;strokeColor=#B20000;" parent="1" edge="1">
          <mxGeometry width="50" height="50" relative="1" as="geometry">
            <mxPoint x="249" y="1381" as="sourcePoint" />
            <mxPoint x="295" y="1371" as="targetPoint" />
            <Array as="points">
              <mxPoint x="269" y="1381" />
              <mxPoint x="269" y="1371" />
            </Array>
          </mxGeometry>
        </mxCell>
        <mxCell id="iXs-68Qg5wSXXJZjbfNh-144" value="" style="endArrow=classic;html=1;rounded=0;fillColor=#e51400;strokeColor=#B20000;" parent="1" edge="1">
          <mxGeometry width="50" height="50" relative="1" as="geometry">
            <mxPoint x="311" y="1363.75" as="sourcePoint" />
            <mxPoint x="328" y="1364" as="targetPoint" />
          </mxGeometry>
        </mxCell>
        <mxCell id="iXs-68Qg5wSXXJZjbfNh-145" value="" style="endArrow=classic;html=1;rounded=0;entryX=0;entryY=0.5;entryDx=0;entryDy=0;" parent="1" target="iXs-68Qg5wSXXJZjbfNh-142" edge="1">
          <mxGeometry width="50" height="50" relative="1" as="geometry">
            <mxPoint x="389" y="1377.8600000000001" as="sourcePoint" />
            <mxPoint x="406" y="1378.1100000000001" as="targetPoint" />
          </mxGeometry>
        </mxCell>
        <mxCell id="iXs-68Qg5wSXXJZjbfNh-146" value="" style="endArrow=classic;html=1;rounded=0;entryX=0;entryY=0.5;entryDx=0;entryDy=0;" parent="1" edge="1">
          <mxGeometry width="50" height="50" relative="1" as="geometry">
            <mxPoint x="89" y="1396" as="sourcePoint" />
            <mxPoint x="295" y="1394.25" as="targetPoint" />
          </mxGeometry>
        </mxCell>
        <mxCell id="iXs-68Qg5wSXXJZjbfNh-147" value="input" style="edgeLabel;html=1;align=center;verticalAlign=middle;resizable=0;points=[];" parent="iXs-68Qg5wSXXJZjbfNh-146" vertex="1" connectable="0">
          <mxGeometry x="-0.2784" y="-1" relative="1" as="geometry">
            <mxPoint x="-25" y="-1" as="offset" />
          </mxGeometry>
        </mxCell>
        <mxCell id="iXs-68Qg5wSXXJZjbfNh-148" value="" style="shape=trapezoid;perimeter=trapezoidPerimeter;whiteSpace=wrap;html=1;fixedSize=1;size=7.5;rotation=90;" parent="1" vertex="1">
          <mxGeometry x="288" y="1393.5" width="30" height="15" as="geometry" />
        </mxCell>
        <mxCell id="iXs-68Qg5wSXXJZjbfNh-149" value="" style="endArrow=classic;html=1;rounded=0;" parent="1" edge="1">
          <mxGeometry width="50" height="50" relative="1" as="geometry">
            <mxPoint x="311" y="1400.75" as="sourcePoint" />
            <mxPoint x="328" y="1401" as="targetPoint" />
          </mxGeometry>
        </mxCell>
        <mxCell id="iXs-68Qg5wSXXJZjbfNh-150" value="" style="endArrow=classic;html=1;rounded=0;entryX=0.5;entryY=1.033;entryDx=0;entryDy=0;entryPerimeter=0;fillColor=#e51400;strokeColor=#B20000;" parent="1" target="iXs-68Qg5wSXXJZjbfNh-138" edge="1">
          <mxGeometry width="50" height="50" relative="1" as="geometry">
            <mxPoint x="359" y="1433" as="sourcePoint" />
            <mxPoint x="359" y="1423" as="targetPoint" />
          </mxGeometry>
        </mxCell>
        <mxCell id="iXs-68Qg5wSXXJZjbfNh-151" value="" style="shape=trapezoid;perimeter=trapezoidPerimeter;whiteSpace=wrap;html=1;fixedSize=1;size=7.5;rotation=0;" parent="1" vertex="1">
          <mxGeometry x="344" y="1433" width="30" height="15" as="geometry" />
        </mxCell>
        <mxCell id="iXs-68Qg5wSXXJZjbfNh-152" value="" style="endArrow=classic;html=1;rounded=0;entryX=0.25;entryY=1;entryDx=0;entryDy=0;exitX=1;exitY=0.5;exitDx=0;exitDy=0;fillColor=#e51400;strokeColor=#B20000;" parent="1" source="iXs-68Qg5wSXXJZjbfNh-158" edge="1">
          <mxGeometry width="50" height="50" relative="1" as="geometry">
            <mxPoint x="339" y="1473" as="sourcePoint" />
            <mxPoint x="350.5" y="1448" as="targetPoint" />
            <Array as="points">
              <mxPoint x="350" y="1473" />
            </Array>
          </mxGeometry>
        </mxCell>
        <mxCell id="iXs-68Qg5wSXXJZjbfNh-155" style="edgeStyle=orthogonalEdgeStyle;rounded=0;orthogonalLoop=1;jettySize=auto;html=1;entryX=0.75;entryY=1;entryDx=0;entryDy=0;fillColor=#e51400;strokeColor=#B20000;" parent="1" source="iXs-68Qg5wSXXJZjbfNh-157" target="iXs-68Qg5wSXXJZjbfNh-148" edge="1">
          <mxGeometry relative="1" as="geometry">
            <mxPoint x="189" y="1423" as="targetPoint" />
            <Array as="points">
              <mxPoint x="189" y="1513" />
              <mxPoint x="189" y="1409" />
            </Array>
          </mxGeometry>
        </mxCell>
        <mxCell id="iXs-68Qg5wSXXJZjbfNh-156" value="conv result" style="edgeLabel;html=1;align=center;verticalAlign=middle;resizable=0;points=[];" parent="iXs-68Qg5wSXXJZjbfNh-155" vertex="1" connectable="0">
          <mxGeometry x="0.7928" y="-1" relative="1" as="geometry">
            <mxPoint x="-28" y="-2" as="offset" />
          </mxGeometry>
        </mxCell>
        <mxCell id="iXs-68Qg5wSXXJZjbfNh-174" style="edgeStyle=orthogonalEdgeStyle;rounded=0;orthogonalLoop=1;jettySize=auto;html=1;" parent="1" source="iXs-68Qg5wSXXJZjbfNh-157" edge="1">
          <mxGeometry relative="1" as="geometry">
            <mxPoint x="365.2358836638622" y="1448.1845640524841" as="targetPoint" />
          </mxGeometry>
        </mxCell>
        <mxCell id="iXs-68Qg5wSXXJZjbfNh-157" value="" style="shape=waypoint;sketch=0;fillStyle=solid;size=6;pointerEvents=1;points=[];fillColor=none;resizable=0;rotatable=0;perimeter=centerPerimeter;snapToPoint=1;" parent="1" vertex="1">
          <mxGeometry x="356" y="1503" width="20" height="20" as="geometry" />
        </mxCell>
        <mxCell id="iXs-68Qg5wSXXJZjbfNh-158" value="&lt;span style=&quot;font-family: Arial, sans-serif; text-align: left;&quot;&gt;&lt;font style=&quot;color: rgb(0, 0, 0);&quot;&gt;β&lt;/font&gt;&lt;/span&gt;" style="rounded=0;whiteSpace=wrap;html=1;fillColor=#dae8fc;strokeColor=#6c8ebf;" parent="1" vertex="1">
          <mxGeometry x="310" y="1463" width="28" height="20" as="geometry" />
        </mxCell>
        <mxCell id="iXs-68Qg5wSXXJZjbfNh-159" value="&lt;font&gt;α&lt;/font&gt;" style="rounded=0;whiteSpace=wrap;html=1;fillColor=#dae8fc;strokeColor=#6c8ebf;" parent="1" vertex="1">
          <mxGeometry x="224" y="1369.5" width="25" height="20" as="geometry" />
        </mxCell>
        <mxCell id="iXs-68Qg5wSXXJZjbfNh-160" style="edgeStyle=orthogonalEdgeStyle;rounded=0;orthogonalLoop=1;jettySize=auto;html=1;" parent="1" source="iXs-68Qg5wSXXJZjbfNh-162" edge="1">
          <mxGeometry relative="1" as="geometry">
            <mxPoint x="519" y="1310" as="targetPoint" />
            <Array as="points">
              <mxPoint x="270" y="1310" />
              <mxPoint x="519" y="1310" />
            </Array>
          </mxGeometry>
        </mxCell>
        <mxCell id="iXs-68Qg5wSXXJZjbfNh-161" value="weight" style="edgeLabel;html=1;align=center;verticalAlign=middle;resizable=0;points=[];" parent="iXs-68Qg5wSXXJZjbfNh-160" vertex="1" connectable="0">
          <mxGeometry x="0.4113" y="1" relative="1" as="geometry">
            <mxPoint x="58" as="offset" />
          </mxGeometry>
        </mxCell>
        <mxCell id="iXs-68Qg5wSXXJZjbfNh-162" value="" style="shape=waypoint;sketch=0;fillStyle=solid;size=6;pointerEvents=1;points=[];fillColor=none;resizable=0;rotatable=0;perimeter=centerPerimeter;snapToPoint=1;" parent="1" vertex="1">
          <mxGeometry x="260" y="1347" width="20" height="20" as="geometry" />
        </mxCell>
        <mxCell id="iXs-68Qg5wSXXJZjbfNh-163" style="edgeStyle=orthogonalEdgeStyle;rounded=0;orthogonalLoop=1;jettySize=auto;html=1;jumpStyle=arc;" parent="1" source="iXs-68Qg5wSXXJZjbfNh-165" edge="1">
          <mxGeometry relative="1" as="geometry">
            <mxPoint x="519" y="1333" as="targetPoint" />
            <Array as="points">
              <mxPoint x="278" y="1333" />
              <mxPoint x="519" y="1333" />
            </Array>
          </mxGeometry>
        </mxCell>
        <mxCell id="iXs-68Qg5wSXXJZjbfNh-164" value="input" style="edgeLabel;html=1;align=center;verticalAlign=middle;resizable=0;points=[];" parent="iXs-68Qg5wSXXJZjbfNh-163" vertex="1" connectable="0">
          <mxGeometry x="0.626" y="-1" relative="1" as="geometry">
            <mxPoint x="27" y="-1" as="offset" />
          </mxGeometry>
        </mxCell>
        <mxCell id="iXs-68Qg5wSXXJZjbfNh-165" value="" style="shape=waypoint;sketch=0;fillStyle=solid;size=6;pointerEvents=1;points=[];fillColor=none;resizable=0;rotatable=0;perimeter=centerPerimeter;snapToPoint=1;" parent="1" vertex="1">
          <mxGeometry x="268" y="1385" width="20" height="20" as="geometry" />
        </mxCell>
        <mxCell id="iXs-68Qg5wSXXJZjbfNh-166" value="" style="endArrow=none;html=1;rounded=0;fillColor=#dae8fc;strokeColor=#A9C4EB;strokeWidth=5;" parent="1" edge="1">
          <mxGeometry width="50" height="50" relative="1" as="geometry">
            <mxPoint x="492" y="1492" as="sourcePoint" />
            <mxPoint x="522" y="1492" as="targetPoint" />
          </mxGeometry>
        </mxCell>
        <mxCell id="iXs-68Qg5wSXXJZjbfNh-167" value="" style="endArrow=none;html=1;rounded=0;fillColor=#fff2cc;strokeColor=#FFCC99;strokeWidth=5;" parent="1" edge="1">
          <mxGeometry width="50" height="50" relative="1" as="geometry">
            <mxPoint x="492" y="1512" as="sourcePoint" />
            <mxPoint x="522" y="1512" as="targetPoint" />
          </mxGeometry>
        </mxCell>
        <mxCell id="iXs-68Qg5wSXXJZjbfNh-168" value="" style="endArrow=none;html=1;rounded=0;fillColor=#f8cecc;strokeColor=#FF9999;strokeWidth=5;" parent="1" edge="1">
          <mxGeometry width="50" height="50" relative="1" as="geometry">
            <mxPoint x="492" y="1531" as="sourcePoint" />
            <mxPoint x="522" y="1531" as="targetPoint" />
          </mxGeometry>
        </mxCell>
        <mxCell id="iXs-68Qg5wSXXJZjbfNh-169" value="buffer" style="text;strokeColor=none;align=center;fillColor=none;html=1;verticalAlign=middle;whiteSpace=wrap;rounded=0;" parent="1" vertex="1">
          <mxGeometry x="522" y="1479" width="50" height="23" as="geometry" />
        </mxCell>
        <mxCell id="iXs-68Qg5wSXXJZjbfNh-170" value="nn &lt;span data-huuid=&quot;6847076873437157149&quot;&gt;&lt;span&gt;arith. logic unit&lt;/span&gt;&lt;/span&gt;" style="text;strokeColor=none;align=center;fillColor=none;html=1;verticalAlign=middle;whiteSpace=wrap;rounded=0;" parent="1" vertex="1">
          <mxGeometry x="522" y="1502" width="108" height="23" as="geometry" />
        </mxCell>
        <mxCell id="iXs-68Qg5wSXXJZjbfNh-171" value="controller" style="text;strokeColor=none;align=center;fillColor=none;html=1;verticalAlign=middle;whiteSpace=wrap;rounded=0;" parent="1" vertex="1">
          <mxGeometry x="530" y="1520" width="50" height="23" as="geometry" />
        </mxCell>
        <mxCell id="iXs-68Qg5wSXXJZjbfNh-172" value="&lt;span style=&quot;font-size: 8px;&quot;&gt;weight&lt;/span&gt;" style="rounded=0;whiteSpace=wrap;html=1;fillColor=#dae8fc;strokeColor=#6c8ebf;" parent="1" vertex="1">
          <mxGeometry x="313" y="1299" width="25" height="20" as="geometry" />
        </mxCell>
        <mxCell id="iXs-68Qg5wSXXJZjbfNh-173" value="&lt;font style=&quot;font-size: 9px;&quot;&gt;input&lt;/font&gt;" style="rounded=0;whiteSpace=wrap;html=1;fillColor=#dae8fc;strokeColor=#6c8ebf;" parent="1" vertex="1">
          <mxGeometry x="313" y="1323" width="25" height="20" as="geometry" />
        </mxCell>
        <mxCell id="iXs-68Qg5wSXXJZjbfNh-175" value="&lt;div&gt;partial&lt;/div&gt;&lt;div&gt;sum&lt;br&gt;&lt;/div&gt;" style="edgeLabel;html=1;align=center;verticalAlign=middle;resizable=0;points=[];" parent="1" vertex="1" connectable="0">
          <mxGeometry x="369" y="1484" as="geometry" />
        </mxCell>
        <mxCell id="iXs-68Qg5wSXXJZjbfNh-178" value="" style="endArrow=none;html=1;rounded=0;entryX=0.5;entryY=1;entryDx=0;entryDy=0;exitX=0.775;exitY=0.525;exitDx=0;exitDy=0;exitPerimeter=0;fillColor=#e51400;strokeColor=#B20000;" parent="1" source="iXs-68Qg5wSXXJZjbfNh-157" target="iXs-68Qg5wSXXJZjbfNh-142" edge="1">
          <mxGeometry width="50" height="50" relative="1" as="geometry">
            <mxPoint x="383" y="1479" as="sourcePoint" />
            <mxPoint x="433" y="1429" as="targetPoint" />
            <Array as="points">
              <mxPoint x="434" y="1513" />
            </Array>
          </mxGeometry>
        </mxCell>
        <mxCell id="0gPuhfRpQMmkJp9ygIhh-2" value="" style="rounded=0;whiteSpace=wrap;html=1;" parent="1" vertex="1">
          <mxGeometry x="220" y="3620" width="690" height="350" as="geometry" />
        </mxCell>
        <mxCell id="0gPuhfRpQMmkJp9ygIhh-3" value="" style="endArrow=classic;html=1;rounded=0;entryX=0.298;entryY=1.002;entryDx=0;entryDy=0;entryPerimeter=0;exitX=0.295;exitY=-0.017;exitDx=0;exitDy=0;exitPerimeter=0;" parent="1" source="0gPuhfRpQMmkJp9ygIhh-21" target="0gPuhfRpQMmkJp9ygIhh-6" edge="1">
          <mxGeometry width="50" height="50" relative="1" as="geometry">
            <mxPoint x="510" y="3890" as="sourcePoint" />
            <mxPoint x="560" y="3840" as="targetPoint" />
          </mxGeometry>
        </mxCell>
        <mxCell id="0gPuhfRpQMmkJp9ygIhh-4" value="&lt;font style=&quot;font-size: 9px;&quot;&gt;sram out&lt;/font&gt;" style="edgeLabel;html=1;align=center;verticalAlign=middle;resizable=0;points=[];" parent="0gPuhfRpQMmkJp9ygIhh-3" vertex="1" connectable="0">
          <mxGeometry x="-0.17" relative="1" as="geometry">
            <mxPoint as="offset" />
          </mxGeometry>
        </mxCell>
        <mxCell id="0gPuhfRpQMmkJp9ygIhh-5" value="&lt;div&gt;INPUT&lt;/div&gt;&lt;div&gt;BUFFER&lt;/div&gt;&lt;div&gt;2&lt;br&gt;&lt;/div&gt;" style="rounded=0;whiteSpace=wrap;html=1;fillColor=#fff2cc;strokeColor=#d6b656;" parent="1" vertex="1">
          <mxGeometry x="290" y="3740" width="90" height="65" as="geometry" />
        </mxCell>
        <mxCell id="0gPuhfRpQMmkJp9ygIhh-6" value="&lt;div&gt;&lt;span style=&quot;color: rgba(0, 0, 0, 0.9); text-align: start;&quot;&gt;&lt;font style=&quot;&quot; face=&quot;Helvetica&quot;&gt;Matrix Multiplication Unit&lt;/font&gt;&lt;/span&gt;&lt;/div&gt;" style="rounded=0;whiteSpace=wrap;html=1;fillColor=#fff2cc;strokeColor=#d6b656;" parent="1" vertex="1">
          <mxGeometry x="480" y="3740" width="90" height="120" as="geometry" />
        </mxCell>
        <mxCell id="0gPuhfRpQMmkJp9ygIhh-7" value="" style="endArrow=classic;html=1;rounded=0;exitX=1;exitY=0.5;exitDx=0;exitDy=0;entryX=0.707;entryY=1.025;entryDx=0;entryDy=0;entryPerimeter=0;" parent="1" edge="1">
          <mxGeometry width="50" height="50" relative="1" as="geometry">
            <mxPoint x="380" y="3765" as="sourcePoint" />
            <mxPoint x="414.50000000000006" y="3722.3500000000004" as="targetPoint" />
            <Array as="points">
              <mxPoint x="400" y="3765" />
              <mxPoint x="400" y="3723" />
            </Array>
          </mxGeometry>
        </mxCell>
        <mxCell id="0gPuhfRpQMmkJp9ygIhh-8" value="&lt;div&gt;MAX /AVG&lt;/div&gt;&lt;div&gt;POOLING&lt;br&gt;&lt;/div&gt;" style="rounded=0;whiteSpace=wrap;html=1;fillColor=#d5e8d4;strokeColor=#82b366;" parent="1" vertex="1">
          <mxGeometry x="620" y="3790" width="90" height="40" as="geometry" />
        </mxCell>
        <mxCell id="0gPuhfRpQMmkJp9ygIhh-9" value="&lt;div style=&quot;font-size: 8px;&quot;&gt;&lt;font style=&quot;font-size: 8px;&quot;&gt;INDEX&lt;/font&gt;&lt;/div&gt;&lt;div style=&quot;font-size: 8px;&quot;&gt;&lt;font style=&quot;font-size: 8px;&quot;&gt;RAM&lt;br style=&quot;font-size: 8px;&quot;&gt;&lt;/font&gt;&lt;/div&gt;" style="rounded=0;whiteSpace=wrap;html=1;align=center;fontStyle=0;verticalAlign=middle;horizontal=1;labelPosition=center;verticalLabelPosition=middle;fontSize=8;fillColor=#fff2cc;strokeColor=#d6b656;" parent="1" vertex="1">
          <mxGeometry x="290" y="3810" width="40" height="20" as="geometry" />
        </mxCell>
        <mxCell id="0gPuhfRpQMmkJp9ygIhh-10" value="&lt;div align=&quot;center&quot;&gt;WEIGHT&lt;/div&gt;&lt;div align=&quot;center&quot;&gt;BUFFER&lt;br&gt;&lt;/div&gt;" style="rounded=0;whiteSpace=wrap;html=1;align=center;fontStyle=0;verticalAlign=middle;horizontal=1;labelPosition=center;verticalLabelPosition=middle;fillColor=#fff2cc;strokeColor=#d6b656;" parent="1" vertex="1">
          <mxGeometry x="290" y="3835" width="90" height="33" as="geometry" />
        </mxCell>
        <mxCell id="0gPuhfRpQMmkJp9ygIhh-11" value="SOFTMAX" style="rounded=0;whiteSpace=wrap;html=1;fillColor=#dae8fc;strokeColor=#6c8ebf;" parent="1" vertex="1">
          <mxGeometry x="480" y="3691" width="90" height="40" as="geometry" />
        </mxCell>
        <mxCell id="0gPuhfRpQMmkJp9ygIhh-12" value="&lt;div&gt;INPUT&lt;/div&gt;&lt;div&gt;BUFFER&lt;br&gt;&lt;/div&gt;&lt;div&gt;1&lt;br&gt;&lt;/div&gt;" style="rounded=0;whiteSpace=wrap;html=1;fillColor=#fff2cc;strokeColor=#d6b656;" parent="1" vertex="1">
          <mxGeometry x="290" y="3670" width="90" height="65" as="geometry" />
        </mxCell>
        <mxCell id="0gPuhfRpQMmkJp9ygIhh-13" value="" style="endArrow=classic;html=1;rounded=0;entryX=-0.003;entryY=0.468;entryDx=0;entryDy=0;entryPerimeter=0;" parent="1" target="0gPuhfRpQMmkJp9ygIhh-12" edge="1">
          <mxGeometry width="50" height="50" relative="1" as="geometry">
            <mxPoint x="200" y="3700" as="sourcePoint" />
            <mxPoint x="240" y="3675" as="targetPoint" />
          </mxGeometry>
        </mxCell>
        <mxCell id="9HqhKiRm1lZXwLNyRVLK-6" value="input&amp;nbsp;&amp;amp; weight" style="edgeLabel;html=1;align=center;verticalAlign=middle;resizable=0;points=[];" vertex="1" connectable="0" parent="0gPuhfRpQMmkJp9ygIhh-13">
          <mxGeometry x="-0.8401" y="-1" relative="1" as="geometry">
            <mxPoint x="-27" y="8" as="offset" />
          </mxGeometry>
        </mxCell>
        <mxCell id="0gPuhfRpQMmkJp9ygIhh-14" value="" style="endArrow=classic;html=1;rounded=0;entryX=0;entryY=0.5;entryDx=0;entryDy=0;" parent="1" source="0gPuhfRpQMmkJp9ygIhh-15" target="0gPuhfRpQMmkJp9ygIhh-5" edge="1">
          <mxGeometry width="50" height="50" relative="1" as="geometry">
            <mxPoint x="240" y="3675" as="sourcePoint" />
            <mxPoint x="550" y="3825" as="targetPoint" />
            <Array as="points">
              <mxPoint x="239" y="3772" />
            </Array>
          </mxGeometry>
        </mxCell>
        <mxCell id="0gPuhfRpQMmkJp9ygIhh-15" value="" style="shape=waypoint;sketch=0;fillStyle=solid;size=6;pointerEvents=1;points=[];fillColor=none;resizable=0;rotatable=0;perimeter=centerPerimeter;snapToPoint=1;" parent="1" vertex="1">
          <mxGeometry x="229" y="3691" width="20" height="20" as="geometry" />
        </mxCell>
        <mxCell id="0gPuhfRpQMmkJp9ygIhh-16" value="" style="shape=trapezoid;perimeter=trapezoidPerimeter;whiteSpace=wrap;html=1;fixedSize=1;size=10;rotation=90;" parent="1" vertex="1">
          <mxGeometry x="400" y="3702" width="50" height="20" as="geometry" />
        </mxCell>
        <mxCell id="0gPuhfRpQMmkJp9ygIhh-17" value="" style="endArrow=classic;html=1;rounded=0;exitX=1.003;exitY=0.488;exitDx=0;exitDy=0;exitPerimeter=0;entryX=0.299;entryY=1.019;entryDx=0;entryDy=0;entryPerimeter=0;" parent="1" source="0gPuhfRpQMmkJp9ygIhh-12" target="0gPuhfRpQMmkJp9ygIhh-16" edge="1">
          <mxGeometry width="50" height="50" relative="1" as="geometry">
            <mxPoint x="390" y="3775" as="sourcePoint" />
            <mxPoint x="400" y="3715" as="targetPoint" />
            <Array as="points">
              <mxPoint x="400" y="3702" />
            </Array>
          </mxGeometry>
        </mxCell>
        <mxCell id="0gPuhfRpQMmkJp9ygIhh-18" value="" style="endArrow=classic;html=1;rounded=0;exitX=0.999;exitY=0.586;exitDx=0;exitDy=0;entryX=0;entryY=0.5;entryDx=0;entryDy=0;exitPerimeter=0;" parent="1" edge="1">
          <mxGeometry width="50" height="50" relative="1" as="geometry">
            <mxPoint x="569.91" y="3810.3200000000006" as="sourcePoint" />
            <mxPoint x="620" y="3810" as="targetPoint" />
          </mxGeometry>
        </mxCell>
        <mxCell id="0gPuhfRpQMmkJp9ygIhh-19" value="" style="edgeStyle=orthogonalEdgeStyle;rounded=0;orthogonalLoop=1;jettySize=auto;html=1;" parent="1" edge="1" source="0gPuhfRpQMmkJp9ygIhh-20">
          <mxGeometry relative="1" as="geometry">
            <mxPoint x="577" y="3810" as="sourcePoint" />
            <mxPoint x="770" y="3780" as="targetPoint" />
            <Array as="points">
              <mxPoint x="593" y="3780" />
            </Array>
          </mxGeometry>
        </mxCell>
        <mxCell id="9HqhKiRm1lZXwLNyRVLK-7" value="convolution result" style="edgeLabel;html=1;align=center;verticalAlign=middle;resizable=0;points=[];" vertex="1" connectable="0" parent="0gPuhfRpQMmkJp9ygIhh-19">
          <mxGeometry x="-0.1555" y="1" relative="1" as="geometry">
            <mxPoint x="8" as="offset" />
          </mxGeometry>
        </mxCell>
        <mxCell id="0gPuhfRpQMmkJp9ygIhh-20" value="" style="shape=waypoint;sketch=0;fillStyle=solid;size=6;pointerEvents=1;points=[];fillColor=none;resizable=0;rotatable=0;perimeter=centerPerimeter;snapToPoint=1;" parent="1" vertex="1">
          <mxGeometry x="583" y="3800" width="20" height="20" as="geometry" />
        </mxCell>
        <mxCell id="0gPuhfRpQMmkJp9ygIhh-21" value="&lt;div&gt;PARTIAL&lt;/div&gt;&lt;div&gt;SUM&lt;/div&gt;&lt;div&gt;BUFFER&lt;br&gt;&lt;/div&gt;" style="rounded=0;whiteSpace=wrap;html=1;fillColor=#fff2cc;strokeColor=#d6b656;" parent="1" vertex="1">
          <mxGeometry x="480" y="3910" width="90" height="50" as="geometry" />
        </mxCell>
        <mxCell id="0gPuhfRpQMmkJp9ygIhh-22" value="&lt;div&gt;OUTPUT&lt;/div&gt;&lt;div&gt;BUFFER&lt;br&gt;&lt;/div&gt;" style="rounded=0;whiteSpace=wrap;html=1;fillColor=#d5e8d4;strokeColor=#82b366;" parent="1" vertex="1">
          <mxGeometry x="820" y="3732" width="70" height="120" as="geometry" />
        </mxCell>
        <mxCell id="0gPuhfRpQMmkJp9ygIhh-23" value="" style="endArrow=classic;html=1;rounded=0;exitX=1.016;exitY=0.327;exitDx=0;exitDy=0;exitPerimeter=0;entryX=0;entryY=0.58;entryDx=0;entryDy=0;entryPerimeter=0;" parent="1" edge="1">
          <mxGeometry width="50" height="50" relative="1" as="geometry">
            <mxPoint x="711" y="3799.8099999999995" as="sourcePoint" />
            <mxPoint x="770" y="3799.8099999999995" as="targetPoint" />
          </mxGeometry>
        </mxCell>
        <mxCell id="0gPuhfRpQMmkJp9ygIhh-24" value="&lt;font style=&quot;font-size: 6px;&quot;&gt;&amp;nbsp;Pooling Output&amp;nbsp; &lt;br&gt;&lt;/font&gt;" style="edgeLabel;html=1;align=center;verticalAlign=middle;resizable=0;points=[];" parent="0gPuhfRpQMmkJp9ygIhh-23" vertex="1" connectable="0">
          <mxGeometry x="-0.2637" relative="1" as="geometry">
            <mxPoint x="3" y="-3" as="offset" />
          </mxGeometry>
        </mxCell>
        <mxCell id="0gPuhfRpQMmkJp9ygIhh-25" value="" style="endArrow=classic;html=1;rounded=0;exitX=0.5;exitY=0;exitDx=0;exitDy=0;entryX=0;entryY=0.5;entryDx=0;entryDy=0;" parent="1" edge="1">
          <mxGeometry width="50" height="50" relative="1" as="geometry">
            <mxPoint x="435" y="3712" as="sourcePoint" />
            <mxPoint x="480" y="3712" as="targetPoint" />
          </mxGeometry>
        </mxCell>
        <mxCell id="0gPuhfRpQMmkJp9ygIhh-26" value="" style="edgeStyle=orthogonalEdgeStyle;rounded=0;orthogonalLoop=1;jettySize=auto;html=1;entryX=-0.007;entryY=0.406;entryDx=0;entryDy=0;entryPerimeter=0;" parent="1" source="0gPuhfRpQMmkJp9ygIhh-27" edge="1">
          <mxGeometry relative="1" as="geometry">
            <mxPoint x="453" y="3715" as="sourcePoint" />
            <mxPoint x="479.37" y="3797.66" as="targetPoint" />
            <Array as="points">
              <mxPoint x="449" y="3798" />
            </Array>
          </mxGeometry>
        </mxCell>
        <mxCell id="0gPuhfRpQMmkJp9ygIhh-27" value="" style="shape=waypoint;sketch=0;fillStyle=solid;size=6;pointerEvents=1;points=[];fillColor=none;resizable=0;rotatable=0;perimeter=centerPerimeter;snapToPoint=1;" parent="1" vertex="1">
          <mxGeometry x="439" y="3702" width="20" height="20" as="geometry" />
        </mxCell>
        <mxCell id="0gPuhfRpQMmkJp9ygIhh-28" value="" style="endArrow=classic;html=1;rounded=0;entryX=0.664;entryY=0.008;entryDx=0;entryDy=0;entryPerimeter=0;exitX=0.295;exitY=-0.017;exitDx=0;exitDy=0;exitPerimeter=0;" parent="1" target="0gPuhfRpQMmkJp9ygIhh-21" edge="1">
          <mxGeometry width="50" height="50" relative="1" as="geometry">
            <mxPoint x="540" y="3861" as="sourcePoint" />
            <mxPoint x="540" y="3890" as="targetPoint" />
          </mxGeometry>
        </mxCell>
        <mxCell id="0gPuhfRpQMmkJp9ygIhh-29" value="sram in" style="edgeLabel;html=1;align=center;verticalAlign=middle;resizable=0;points=[];fontSize=9;" parent="0gPuhfRpQMmkJp9ygIhh-28" vertex="1" connectable="0">
          <mxGeometry x="-0.2414" y="-1" relative="1" as="geometry">
            <mxPoint y="-6" as="offset" />
          </mxGeometry>
        </mxCell>
        <mxCell id="0gPuhfRpQMmkJp9ygIhh-30" value="CONTROLLER" style="rounded=0;whiteSpace=wrap;html=1;align=center;fontStyle=0;verticalAlign=middle;horizontal=1;labelPosition=center;verticalLabelPosition=middle;fillColor=#f8cecc;strokeColor=#b85450;" parent="1" vertex="1">
          <mxGeometry x="290" y="3625" width="90" height="40" as="geometry" />
        </mxCell>
        <mxCell id="0gPuhfRpQMmkJp9ygIhh-31" value="" style="endArrow=classic;html=1;rounded=0;exitX=1;exitY=0.5;exitDx=0;exitDy=0;" parent="1" source="0gPuhfRpQMmkJp9ygIhh-11" edge="1">
          <mxGeometry width="50" height="50" relative="1" as="geometry">
            <mxPoint x="570" y="3660" as="sourcePoint" />
            <mxPoint x="770" y="3760" as="targetPoint" />
            <Array as="points">
              <mxPoint x="700" y="3710" />
              <mxPoint x="700" y="3760" />
            </Array>
          </mxGeometry>
        </mxCell>
        <mxCell id="0gPuhfRpQMmkJp9ygIhh-32" value="&lt;font style=&quot;font-size: 10px;&quot;&gt;Softmax Output&lt;/font&gt;" style="edgeLabel;html=1;align=center;verticalAlign=middle;resizable=0;points=[];" parent="0gPuhfRpQMmkJp9ygIhh-31" vertex="1" connectable="0">
          <mxGeometry x="-0.3151" y="2" relative="1" as="geometry">
            <mxPoint x="-34" as="offset" />
          </mxGeometry>
        </mxCell>
        <mxCell id="0gPuhfRpQMmkJp9ygIhh-33" value="" style="endArrow=classic;html=1;rounded=0;exitX=1.001;exitY=0.462;exitDx=0;exitDy=0;exitPerimeter=0;entryX=-0.009;entryY=0.91;entryDx=0;entryDy=0;entryPerimeter=0;" parent="1" edge="1">
          <mxGeometry width="50" height="50" relative="1" as="geometry">
            <mxPoint x="380.0899999999999" y="3847.246" as="sourcePoint" />
            <mxPoint x="479.18999999999994" y="3848" as="targetPoint" />
          </mxGeometry>
        </mxCell>
        <mxCell id="0gPuhfRpQMmkJp9ygIhh-34" value="" style="shape=trapezoid;perimeter=trapezoidPerimeter;whiteSpace=wrap;html=1;fixedSize=1;size=10;rotation=90;" parent="1" vertex="1">
          <mxGeometry x="754" y="3769" width="54" height="20" as="geometry" />
        </mxCell>
        <mxCell id="0gPuhfRpQMmkJp9ygIhh-35" value="" style="endArrow=classic;html=1;rounded=0;exitX=0.5;exitY=0;exitDx=0;exitDy=0;entryX=-0.01;entryY=0.389;entryDx=0;entryDy=0;entryPerimeter=0;" parent="1" source="0gPuhfRpQMmkJp9ygIhh-34" target="0gPuhfRpQMmkJp9ygIhh-22" edge="1">
          <mxGeometry width="50" height="50" relative="1" as="geometry">
            <mxPoint x="794" y="3776" as="sourcePoint" />
            <mxPoint x="800" y="3800" as="targetPoint" />
          </mxGeometry>
        </mxCell>
        <mxCell id="0gPuhfRpQMmkJp9ygIhh-36" value="" style="endArrow=classic;html=1;rounded=0;exitX=0;exitY=0.5;exitDx=0;exitDy=0;entryX=0;entryY=0.774;entryDx=0;entryDy=0;entryPerimeter=0;" parent="1" source="0gPuhfRpQMmkJp9ygIhh-9" target="0gPuhfRpQMmkJp9ygIhh-5" edge="1">
          <mxGeometry width="50" height="50" relative="1" as="geometry">
            <mxPoint x="220" y="3820" as="sourcePoint" />
            <mxPoint x="270" y="3770" as="targetPoint" />
            <Array as="points">
              <mxPoint x="270" y="3820" />
              <mxPoint x="270" y="3790" />
            </Array>
          </mxGeometry>
        </mxCell>
        <mxCell id="0gPuhfRpQMmkJp9ygIhh-37" value="" style="edgeStyle=orthogonalEdgeStyle;rounded=0;orthogonalLoop=1;jettySize=auto;html=1;entryX=-0.006;entryY=0.911;entryDx=0;entryDy=0;entryPerimeter=0;jumpStyle=arc;jumpSize=5;" parent="1" source="0gPuhfRpQMmkJp9ygIhh-38" target="0gPuhfRpQMmkJp9ygIhh-12" edge="1">
          <mxGeometry relative="1" as="geometry">
            <mxPoint x="270" y="3720" as="targetPoint" />
            <Array as="points">
              <mxPoint x="270" y="3729" />
            </Array>
          </mxGeometry>
        </mxCell>
        <mxCell id="0gPuhfRpQMmkJp9ygIhh-38" value="" style="shape=waypoint;sketch=0;fillStyle=solid;size=6;pointerEvents=1;points=[];fillColor=none;resizable=0;rotatable=0;perimeter=centerPerimeter;snapToPoint=1;" parent="1" vertex="1">
          <mxGeometry x="260" y="3780" width="20" height="20" as="geometry" />
        </mxCell>
        <mxCell id="0gPuhfRpQMmkJp9ygIhh-45" value="" style="endArrow=classic;html=1;rounded=0;" parent="1" edge="1">
          <mxGeometry width="50" height="50" relative="1" as="geometry">
            <mxPoint x="890" y="3790" as="sourcePoint" />
            <mxPoint x="940" y="3790" as="targetPoint" />
          </mxGeometry>
        </mxCell>
        <mxCell id="0gPuhfRpQMmkJp9ygIhh-47" value="&lt;div align=&quot;center&quot;&gt;done&lt;/div&gt;" style="rounded=0;whiteSpace=wrap;html=1;align=center;fontStyle=0;verticalAlign=middle;horizontal=1;labelPosition=center;verticalLabelPosition=middle;fillColor=#fff2cc;strokeColor=#d6b656;" parent="1" vertex="1">
          <mxGeometry x="253" y="3925" width="36" height="20" as="geometry" />
        </mxCell>
        <mxCell id="0gPuhfRpQMmkJp9ygIhh-49" value="&lt;div align=&quot;center&quot;&gt;02/21&lt;/div&gt;" style="rounded=0;whiteSpace=wrap;html=1;align=center;fontStyle=0;verticalAlign=middle;horizontal=1;labelPosition=center;verticalLabelPosition=middle;fillColor=#f8cecc;strokeColor=#b85450;" parent="1" vertex="1">
          <mxGeometry x="297" y="3925" width="36" height="20" as="geometry" />
        </mxCell>
        <mxCell id="0gPuhfRpQMmkJp9ygIhh-50" value="&lt;div align=&quot;center&quot;&gt;02/24&lt;/div&gt;" style="rounded=0;whiteSpace=wrap;html=1;align=center;fontStyle=0;verticalAlign=middle;horizontal=1;labelPosition=center;verticalLabelPosition=middle;fillColor=#d5e8d4;strokeColor=#82b366;" parent="1" vertex="1">
          <mxGeometry x="342" y="3925" width="36" height="20" as="geometry" />
        </mxCell>
        <mxCell id="9HqhKiRm1lZXwLNyRVLK-1" value="&lt;div align=&quot;center&quot;&gt;02/27&lt;/div&gt;" style="rounded=0;whiteSpace=wrap;html=1;align=center;fontStyle=0;verticalAlign=middle;horizontal=1;labelPosition=center;verticalLabelPosition=middle;fillColor=#dae8fc;strokeColor=#6c8ebf;" vertex="1" parent="1">
          <mxGeometry x="385" y="3925" width="36" height="20" as="geometry" />
        </mxCell>
        <mxCell id="9HqhKiRm1lZXwLNyRVLK-4" style="edgeStyle=orthogonalEdgeStyle;rounded=0;orthogonalLoop=1;jettySize=auto;html=1;entryX=0;entryY=0.5;entryDx=0;entryDy=0;" edge="1" parent="1" source="9HqhKiRm1lZXwLNyRVLK-2" target="0gPuhfRpQMmkJp9ygIhh-10">
          <mxGeometry relative="1" as="geometry">
            <Array as="points">
              <mxPoint x="239" y="3851" />
            </Array>
          </mxGeometry>
        </mxCell>
        <mxCell id="9HqhKiRm1lZXwLNyRVLK-2" value="" style="shape=waypoint;sketch=0;fillStyle=solid;size=6;pointerEvents=1;points=[];fillColor=none;resizable=0;rotatable=0;perimeter=centerPerimeter;snapToPoint=1;" vertex="1" parent="1">
          <mxGeometry x="229" y="3762" width="20" height="20" as="geometry" />
        </mxCell>
        <mxCell id="9HqhKiRm1lZXwLNyRVLK-9" style="edgeStyle=orthogonalEdgeStyle;rounded=0;orthogonalLoop=1;jettySize=auto;html=1;entryX=0;entryY=0.5;entryDx=0;entryDy=0;" edge="1" parent="1" source="9HqhKiRm1lZXwLNyRVLK-8" target="xfxsIgeY6kW6B-Hptfqs-8">
          <mxGeometry relative="1" as="geometry">
            <Array as="points">
              <mxPoint x="138" y="301" />
              <mxPoint x="138" y="382" />
            </Array>
          </mxGeometry>
        </mxCell>
        <mxCell id="9HqhKiRm1lZXwLNyRVLK-8" value="" style="shape=waypoint;sketch=0;fillStyle=solid;size=6;pointerEvents=1;points=[];fillColor=none;resizable=0;rotatable=0;perimeter=centerPerimeter;snapToPoint=1;" vertex="1" parent="1">
          <mxGeometry x="129" y="291" width="20" height="20" as="geometry" />
        </mxCell>
      </root>
    </mxGraphModel>
  </diagram>
</mxfile>
